<svg width="1363" height="297" viewBox="0 0 1363 297" fill="none" xmlns="http://www.w3.org/2000/svg">
<path d="M0 15C0 6.71573 6.71573 0 15 0H37V297H15C6.71573 297 0 290.284 0 282V15Z" fill="#BB3233"/>
<path d="M37 0H1066V297H37V0Z" fill="#F0F0F0"/>
<path d="M97.6934 49.4062H102.158L108.732 68.1973L115.307 49.4062H119.771L110.525 75H106.939L97.6934 49.4062ZM95.2852 49.4062H99.7324L100.541 67.7227V75H95.2852V49.4062ZM117.732 49.4062H122.197V75H116.924V67.7227L117.732 49.4062ZM125.695 65.6836V65.3145C125.695 63.9199 125.895 62.6367 126.293 61.4648C126.691 60.2812 127.271 59.2559 128.033 58.3887C128.795 57.5215 129.732 56.8477 130.846 56.3672C131.959 55.875 133.236 55.6289 134.678 55.6289C136.119 55.6289 137.402 55.875 138.527 56.3672C139.652 56.8477 140.596 57.5215 141.357 58.3887C142.131 59.2559 142.717 60.2812 143.115 61.4648C143.514 62.6367 143.713 63.9199 143.713 65.3145V65.6836C143.713 67.0664 143.514 68.3496 143.115 69.5332C142.717 70.7051 142.131 71.7305 141.357 72.6094C140.596 73.4766 139.658 74.1504 138.545 74.6309C137.432 75.1113 136.154 75.3516 134.713 75.3516C133.271 75.3516 131.988 75.1113 130.863 74.6309C129.75 74.1504 128.807 73.4766 128.033 72.6094C127.271 71.7305 126.691 70.7051 126.293 69.5332C125.895 68.3496 125.695 67.0664 125.695 65.6836ZM130.758 65.3145V65.6836C130.758 66.4805 130.828 67.2246 130.969 67.916C131.109 68.6074 131.332 69.2168 131.637 69.7441C131.953 70.2598 132.363 70.6641 132.867 70.957C133.371 71.25 133.986 71.3965 134.713 71.3965C135.416 71.3965 136.02 71.25 136.523 70.957C137.027 70.6641 137.432 70.2598 137.736 69.7441C138.041 69.2168 138.264 68.6074 138.404 67.916C138.557 67.2246 138.633 66.4805 138.633 65.6836V65.3145C138.633 64.541 138.557 63.8145 138.404 63.1348C138.264 62.4434 138.035 61.834 137.719 61.3066C137.414 60.7676 137.01 60.3457 136.506 60.041C136.002 59.7363 135.393 59.584 134.678 59.584C133.963 59.584 133.354 59.7363 132.85 60.041C132.357 60.3457 131.953 60.7676 131.637 61.3066C131.332 61.834 131.109 62.4434 130.969 63.1348C130.828 63.8145 130.758 64.541 130.758 65.3145ZM151.764 48V75H146.701V48H151.764ZM151.043 64.8223H149.654C149.666 63.498 149.842 62.2793 150.182 61.166C150.521 60.041 151.008 59.0684 151.641 58.248C152.273 57.416 153.029 56.7715 153.908 56.3145C154.799 55.8574 155.783 55.6289 156.861 55.6289C157.799 55.6289 158.648 55.7637 159.41 56.0332C160.184 56.291 160.846 56.7129 161.396 57.2988C161.959 57.873 162.393 58.6289 162.697 59.5664C163.002 60.5039 163.154 61.6406 163.154 62.9766V75H158.057V62.9414C158.057 62.0977 157.934 61.4355 157.688 60.9551C157.453 60.4629 157.107 60.1172 156.65 59.918C156.205 59.707 155.654 59.6016 154.998 59.6016C154.271 59.6016 153.65 59.7363 153.135 60.0059C152.631 60.2754 152.227 60.6504 151.922 61.1309C151.617 61.5996 151.395 62.1504 151.254 62.7832C151.113 63.416 151.043 64.0957 151.043 64.8223ZM177.27 70.7109V62.2383C177.27 61.6289 177.17 61.1074 176.971 60.6738C176.771 60.2285 176.461 59.8828 176.039 59.6367C175.629 59.3906 175.096 59.2676 174.439 59.2676C173.877 59.2676 173.391 59.3672 172.98 59.5664C172.57 59.7539 172.254 60.0293 172.031 60.3926C171.809 60.7441 171.697 61.1602 171.697 61.6406H166.635C166.635 60.832 166.822 60.0645 167.197 59.3379C167.572 58.6113 168.117 57.9727 168.832 57.4219C169.547 56.8594 170.396 56.4199 171.381 56.1035C172.377 55.7871 173.49 55.6289 174.721 55.6289C176.197 55.6289 177.51 55.875 178.658 56.3672C179.807 56.8594 180.709 57.5977 181.365 58.582C182.033 59.5664 182.367 60.7969 182.367 62.2734V70.4121C182.367 71.4551 182.432 72.3105 182.561 72.9785C182.689 73.6348 182.877 74.209 183.123 74.7012V75H178.008C177.762 74.4844 177.574 73.8398 177.445 73.0664C177.328 72.2812 177.27 71.4961 177.27 70.7109ZM177.938 63.416L177.973 66.2812H175.143C174.475 66.2812 173.895 66.3574 173.402 66.5098C172.91 66.6621 172.506 66.8789 172.189 67.1602C171.873 67.4297 171.639 67.7461 171.486 68.1094C171.346 68.4727 171.275 68.8711 171.275 69.3047C171.275 69.7383 171.375 70.1309 171.574 70.4824C171.773 70.8223 172.061 71.0918 172.436 71.291C172.811 71.4785 173.25 71.5723 173.754 71.5723C174.516 71.5723 175.178 71.4199 175.74 71.1152C176.303 70.8105 176.736 70.4355 177.041 69.9902C177.357 69.5449 177.521 69.123 177.533 68.7246L178.869 70.8691C178.682 71.3496 178.424 71.8477 178.096 72.3633C177.779 72.8789 177.375 73.3652 176.883 73.8223C176.391 74.2676 175.799 74.6367 175.107 74.9297C174.416 75.2109 173.596 75.3516 172.646 75.3516C171.439 75.3516 170.344 75.1113 169.359 74.6309C168.387 74.1387 167.613 73.4648 167.039 72.6094C166.477 71.7422 166.195 70.7578 166.195 69.6562C166.195 68.6602 166.383 67.7754 166.758 67.002C167.133 66.2285 167.684 65.5781 168.41 65.0508C169.148 64.5117 170.068 64.1074 171.17 63.8379C172.271 63.5566 173.549 63.416 175.002 63.416H177.938ZM191.332 59.918V75H186.252V55.9805H191.016L191.332 59.918ZM190.629 64.8223H189.223C189.223 63.498 189.381 62.2793 189.697 61.166C190.025 60.041 190.5 59.0684 191.121 58.248C191.754 57.416 192.533 56.7715 193.459 56.3145C194.385 55.8574 195.457 55.6289 196.676 55.6289C197.52 55.6289 198.293 55.7578 198.996 56.0156C199.699 56.2617 200.303 56.6543 200.807 57.1934C201.322 57.7207 201.721 58.4121 202.002 59.2676C202.283 60.1113 202.424 61.125 202.424 62.3086V75H197.361V62.8711C197.361 62.0039 197.244 61.3359 197.01 60.8672C196.775 60.3984 196.441 60.0703 196.008 59.8828C195.586 59.6953 195.076 59.6016 194.479 59.6016C193.822 59.6016 193.248 59.7363 192.756 60.0059C192.275 60.2754 191.877 60.6504 191.561 61.1309C191.244 61.5996 191.01 62.1504 190.857 62.7832C190.705 63.416 190.629 64.0957 190.629 64.8223ZM201.949 64.2422L200.139 64.4707C200.139 63.2285 200.291 62.0742 200.596 61.0078C200.912 59.9414 201.375 59.0039 201.984 58.1953C202.605 57.3867 203.373 56.7598 204.287 56.3145C205.201 55.8574 206.256 55.6289 207.451 55.6289C208.365 55.6289 209.197 55.7637 209.947 56.0332C210.697 56.291 211.336 56.707 211.863 57.2812C212.402 57.8438 212.812 58.582 213.094 59.4961C213.387 60.4102 213.533 61.5293 213.533 62.8535V75H208.453V62.8535C208.453 61.9746 208.336 61.3066 208.102 60.8496C207.879 60.3809 207.551 60.0586 207.117 59.8828C206.695 59.6953 206.191 59.6016 205.605 59.6016C204.996 59.6016 204.463 59.7246 204.006 59.9707C203.549 60.2051 203.168 60.5332 202.863 60.9551C202.559 61.377 202.33 61.8691 202.178 62.4316C202.025 62.9824 201.949 63.5859 201.949 64.2422ZM227.719 70.7109V62.2383C227.719 61.6289 227.619 61.1074 227.42 60.6738C227.221 60.2285 226.91 59.8828 226.488 59.6367C226.078 59.3906 225.545 59.2676 224.889 59.2676C224.326 59.2676 223.84 59.3672 223.43 59.5664C223.02 59.7539 222.703 60.0293 222.48 60.3926C222.258 60.7441 222.146 61.1602 222.146 61.6406H217.084C217.084 60.832 217.271 60.0645 217.646 59.3379C218.021 58.6113 218.566 57.9727 219.281 57.4219C219.996 56.8594 220.846 56.4199 221.83 56.1035C222.826 55.7871 223.939 55.6289 225.17 55.6289C226.646 55.6289 227.959 55.875 229.107 56.3672C230.256 56.8594 231.158 57.5977 231.814 58.582C232.482 59.5664 232.816 60.7969 232.816 62.2734V70.4121C232.816 71.4551 232.881 72.3105 233.01 72.9785C233.139 73.6348 233.326 74.209 233.572 74.7012V75H228.457C228.211 74.4844 228.023 73.8398 227.895 73.0664C227.777 72.2812 227.719 71.4961 227.719 70.7109ZM228.387 63.416L228.422 66.2812H225.592C224.924 66.2812 224.344 66.3574 223.852 66.5098C223.359 66.6621 222.955 66.8789 222.639 67.1602C222.322 67.4297 222.088 67.7461 221.936 68.1094C221.795 68.4727 221.725 68.8711 221.725 69.3047C221.725 69.7383 221.824 70.1309 222.023 70.4824C222.223 70.8223 222.51 71.0918 222.885 71.291C223.26 71.4785 223.699 71.5723 224.203 71.5723C224.965 71.5723 225.627 71.4199 226.189 71.1152C226.752 70.8105 227.186 70.4355 227.49 69.9902C227.807 69.5449 227.971 69.123 227.982 68.7246L229.318 70.8691C229.131 71.3496 228.873 71.8477 228.545 72.3633C228.229 72.8789 227.824 73.3652 227.332 73.8223C226.84 74.2676 226.248 74.6367 225.557 74.9297C224.865 75.2109 224.045 75.3516 223.096 75.3516C221.889 75.3516 220.793 75.1113 219.809 74.6309C218.836 74.1387 218.062 73.4648 217.488 72.6094C216.926 71.7422 216.645 70.7578 216.645 69.6562C216.645 68.6602 216.832 67.7754 217.207 67.002C217.582 66.2285 218.133 65.5781 218.859 65.0508C219.598 64.5117 220.518 64.1074 221.619 63.8379C222.721 63.5566 223.998 63.416 225.451 63.416H228.387ZM247.951 70.8516V48H253.049V75H248.461L247.951 70.8516ZM235.928 65.7188V65.3496C235.928 63.8965 236.092 62.5781 236.42 61.3945C236.748 60.1992 237.229 59.1738 237.861 58.3184C238.494 57.4629 239.273 56.8008 240.199 56.332C241.125 55.8633 242.18 55.6289 243.363 55.6289C244.477 55.6289 245.449 55.8633 246.281 56.332C247.125 56.8008 247.84 57.4688 248.426 58.3359C249.023 59.1914 249.504 60.2051 249.867 61.377C250.23 62.5371 250.494 63.8086 250.658 65.1914V66C250.494 67.3242 250.23 68.5547 249.867 69.6914C249.504 70.8281 249.023 71.8242 248.426 72.6797C247.84 73.5234 247.125 74.1797 246.281 74.6484C245.438 75.1172 244.453 75.3516 243.328 75.3516C242.145 75.3516 241.09 75.1113 240.164 74.6309C239.25 74.1504 238.477 73.4766 237.844 72.6094C237.223 71.7422 236.748 70.7227 236.42 69.5508C236.092 68.3789 235.928 67.1016 235.928 65.7188ZM240.99 65.3496V65.7188C240.99 66.5039 241.049 67.2363 241.166 67.916C241.295 68.5957 241.5 69.1992 241.781 69.7266C242.074 70.2422 242.449 70.6465 242.906 70.9395C243.375 71.2207 243.943 71.3613 244.611 71.3613C245.479 71.3613 246.193 71.168 246.756 70.7812C247.318 70.3828 247.746 69.8379 248.039 69.1465C248.344 68.4551 248.52 67.6582 248.566 66.7559V64.4531C248.531 63.7148 248.426 63.0527 248.25 62.4668C248.086 61.8691 247.84 61.3594 247.512 60.9375C247.195 60.5156 246.797 60.1875 246.316 59.9531C245.848 59.7188 245.291 59.6016 244.646 59.6016C243.99 59.6016 243.428 59.7539 242.959 60.0586C242.49 60.3516 242.109 60.7559 241.816 61.2715C241.535 61.7871 241.324 62.3965 241.184 63.0996C241.055 63.791 240.99 64.541 240.99 65.3496ZM276.691 53.7832L269.73 75H264.123L273.633 49.4062H277.201L276.691 53.7832ZM282.475 75L275.496 53.7832L274.934 49.4062H278.537L288.1 75H282.475ZM282.158 65.4727V69.6035H268.641V65.4727H282.158ZM299.156 55.9805V59.5664H288.082V55.9805H299.156ZM290.824 51.2871H295.887V69.2695C295.887 69.8203 295.957 70.2422 296.098 70.5352C296.25 70.8281 296.473 71.0332 296.766 71.1504C297.059 71.2559 297.428 71.3086 297.873 71.3086C298.189 71.3086 298.471 71.2969 298.717 71.2734C298.975 71.2383 299.191 71.2031 299.367 71.168L299.385 74.8945C298.951 75.0352 298.482 75.1465 297.979 75.2285C297.475 75.3105 296.918 75.3516 296.309 75.3516C295.195 75.3516 294.223 75.1699 293.391 74.8066C292.57 74.4316 291.938 73.834 291.492 73.0137C291.047 72.1934 290.824 71.1152 290.824 69.7793V51.2871ZM300.773 65.6836V65.3145C300.773 63.9199 300.973 62.6367 301.371 61.4648C301.77 60.2812 302.35 59.2559 303.111 58.3887C303.873 57.5215 304.811 56.8477 305.924 56.3672C307.037 55.875 308.314 55.6289 309.756 55.6289C311.197 55.6289 312.48 55.875 313.605 56.3672C314.73 56.8477 315.674 57.5215 316.436 58.3887C317.209 59.2559 317.795 60.2812 318.193 61.4648C318.592 62.6367 318.791 63.9199 318.791 65.3145V65.6836C318.791 67.0664 318.592 68.3496 318.193 69.5332C317.795 70.7051 317.209 71.7305 316.436 72.6094C315.674 73.4766 314.736 74.1504 313.623 74.6309C312.51 75.1113 311.232 75.3516 309.791 75.3516C308.35 75.3516 307.066 75.1113 305.941 74.6309C304.828 74.1504 303.885 73.4766 303.111 72.6094C302.35 71.7305 301.77 70.7051 301.371 69.5332C300.973 68.3496 300.773 67.0664 300.773 65.6836ZM305.836 65.3145V65.6836C305.836 66.4805 305.906 67.2246 306.047 67.916C306.188 68.6074 306.41 69.2168 306.715 69.7441C307.031 70.2598 307.441 70.6641 307.945 70.957C308.449 71.25 309.064 71.3965 309.791 71.3965C310.494 71.3965 311.098 71.25 311.602 70.957C312.105 70.6641 312.51 70.2598 312.814 69.7441C313.119 69.2168 313.342 68.6074 313.482 67.916C313.635 67.2246 313.711 66.4805 313.711 65.6836V65.3145C313.711 64.541 313.635 63.8145 313.482 63.1348C313.342 62.4434 313.113 61.834 312.797 61.3066C312.492 60.7676 312.088 60.3457 311.584 60.041C311.08 59.7363 310.471 59.584 309.756 59.584C309.041 59.584 308.432 59.7363 307.928 60.041C307.436 60.3457 307.031 60.7676 306.715 61.3066C306.41 61.834 306.188 62.4434 306.047 63.1348C305.906 63.8145 305.836 64.541 305.836 65.3145ZM333.152 70.4473V55.9805H338.215V75H333.451L333.152 70.4473ZM333.715 66.5449L335.209 66.5098C335.209 67.7754 335.062 68.9531 334.77 70.043C334.477 71.1211 334.037 72.0586 333.451 72.8555C332.865 73.6406 332.127 74.2559 331.236 74.7012C330.346 75.1348 329.297 75.3516 328.09 75.3516C327.164 75.3516 326.309 75.2227 325.523 74.9648C324.75 74.6953 324.082 74.2793 323.52 73.7168C322.969 73.1426 322.535 72.4102 322.219 71.5195C321.914 70.6172 321.762 69.5332 321.762 68.2676V55.9805H326.824V68.3027C326.824 68.8652 326.889 69.3398 327.018 69.7266C327.158 70.1133 327.352 70.4297 327.598 70.6758C327.844 70.9219 328.131 71.0977 328.459 71.2031C328.799 71.3086 329.174 71.3613 329.584 71.3613C330.627 71.3613 331.447 71.1504 332.045 70.7285C332.654 70.3066 333.082 69.7324 333.328 69.0059C333.586 68.2676 333.715 67.4473 333.715 66.5449ZM351.398 55.9805V59.5664H340.324V55.9805H351.398ZM343.066 51.2871H348.129V69.2695C348.129 69.8203 348.199 70.2422 348.34 70.5352C348.492 70.8281 348.715 71.0332 349.008 71.1504C349.301 71.2559 349.67 71.3086 350.115 71.3086C350.432 71.3086 350.713 71.2969 350.959 71.2734C351.217 71.2383 351.434 71.2031 351.609 71.168L351.627 74.8945C351.193 75.0352 350.725 75.1465 350.221 75.2285C349.717 75.3105 349.16 75.3516 348.551 75.3516C347.438 75.3516 346.465 75.1699 345.633 74.8066C344.812 74.4316 344.18 73.834 343.734 73.0137C343.289 72.1934 343.066 71.1152 343.066 69.7793V51.2871Z" fill="#888888"/>
<path d="M112.906 108.555L103.199 140H92.8906L107.52 100.188H114.055L112.906 108.555ZM120.945 140L111.211 108.555L109.953 100.188H116.57L131.281 140H120.945ZM120.562 125.152V132.562H100.137V125.152H120.562ZM150.723 132.809V110.414H159.965V140H151.324L150.723 132.809ZM151.598 126.793L154.004 126.738C154.004 128.725 153.767 130.566 153.293 132.262C152.819 133.939 152.117 135.397 151.188 136.637C150.276 137.876 149.146 138.842 147.797 139.535C146.466 140.21 144.926 140.547 143.176 140.547C141.717 140.547 140.378 140.346 139.156 139.945C137.953 139.526 136.914 138.879 136.039 138.004C135.164 137.111 134.48 135.971 133.988 134.586C133.514 133.182 133.277 131.505 133.277 129.555V110.414H142.492V129.609C142.492 130.266 142.574 130.831 142.738 131.305C142.902 131.779 143.139 132.18 143.449 132.508C143.759 132.818 144.142 133.055 144.598 133.219C145.072 133.365 145.609 133.438 146.211 133.438C147.596 133.438 148.681 133.146 149.465 132.562C150.249 131.979 150.796 131.186 151.105 130.184C151.434 129.181 151.598 128.051 151.598 126.793ZM180.637 110.414V116.812H162.809V110.414H180.637ZM166.555 103.059H175.77V130.348C175.77 131.132 175.861 131.742 176.043 132.18C176.225 132.599 176.535 132.9 176.973 133.082C177.428 133.246 178.03 133.328 178.777 133.328C179.306 133.328 179.743 133.319 180.09 133.301C180.436 133.264 180.764 133.219 181.074 133.164V139.754C180.29 140.009 179.47 140.201 178.613 140.328C177.757 140.474 176.845 140.547 175.879 140.547C173.91 140.547 172.224 140.237 170.82 139.617C169.435 138.997 168.378 138.022 167.648 136.691C166.919 135.361 166.555 133.629 166.555 131.496V103.059ZM182.332 125.508V124.934C182.332 122.764 182.642 120.768 183.262 118.945C183.882 117.104 184.793 115.509 185.996 114.16C187.199 112.811 188.685 111.763 190.453 111.016C192.221 110.25 194.263 109.867 196.578 109.867C198.911 109.867 200.962 110.25 202.73 111.016C204.517 111.763 206.012 112.811 207.215 114.16C208.418 115.509 209.329 117.104 209.949 118.945C210.569 120.768 210.879 122.764 210.879 124.934V125.508C210.879 127.659 210.569 129.655 209.949 131.496C209.329 133.319 208.418 134.914 207.215 136.281C206.012 137.63 204.526 138.678 202.758 139.426C200.99 140.173 198.948 140.547 196.633 140.547C194.318 140.547 192.267 140.173 190.48 139.426C188.694 138.678 187.199 137.63 185.996 136.281C184.793 134.914 183.882 133.319 183.262 131.496C182.642 129.655 182.332 127.659 182.332 125.508ZM191.547 124.934V125.508C191.547 126.62 191.629 127.659 191.793 128.625C191.957 129.591 192.23 130.439 192.613 131.168C192.996 131.879 193.516 132.435 194.172 132.836C194.828 133.237 195.648 133.438 196.633 133.438C197.599 133.438 198.401 133.237 199.039 132.836C199.695 132.435 200.215 131.879 200.598 131.168C200.98 130.439 201.254 129.591 201.418 128.625C201.582 127.659 201.664 126.62 201.664 125.508V124.934C201.664 123.858 201.582 122.846 201.418 121.898C201.254 120.932 200.98 120.085 200.598 119.355C200.215 118.608 199.695 118.025 199.039 117.605C198.383 117.186 197.562 116.977 196.578 116.977C195.612 116.977 194.801 117.186 194.145 117.605C193.507 118.025 192.996 118.608 192.613 119.355C192.23 120.085 191.957 120.932 191.793 121.898C191.629 122.846 191.547 123.858 191.547 124.934ZM238.059 126.52H247.629C247.501 129.29 246.754 131.733 245.387 133.848C244.02 135.962 242.124 137.612 239.699 138.797C237.293 139.964 234.449 140.547 231.168 140.547C228.507 140.547 226.128 140.1 224.031 139.207C221.953 138.314 220.185 137.029 218.727 135.352C217.286 133.674 216.184 131.642 215.418 129.254C214.671 126.866 214.297 124.177 214.297 121.188V119.027C214.297 116.038 214.689 113.349 215.473 110.961C216.275 108.555 217.405 106.513 218.863 104.836C220.34 103.141 222.108 101.846 224.168 100.953C226.228 100.06 228.516 99.6133 231.031 99.6133C234.495 99.6133 237.421 100.233 239.809 101.473C242.197 102.712 244.047 104.417 245.359 106.586C246.672 108.737 247.447 111.189 247.684 113.941H238.113C238.077 112.447 237.822 111.198 237.348 110.195C236.874 109.174 236.126 108.409 235.105 107.898C234.085 107.388 232.727 107.133 231.031 107.133C229.846 107.133 228.816 107.352 227.941 107.789C227.066 108.227 226.337 108.919 225.754 109.867C225.171 110.815 224.733 112.046 224.441 113.559C224.168 115.053 224.031 116.858 224.031 118.973V121.188C224.031 123.302 224.159 125.107 224.414 126.602C224.669 128.096 225.079 129.318 225.645 130.266C226.21 131.214 226.939 131.915 227.832 132.371C228.743 132.809 229.855 133.027 231.168 133.027C232.626 133.027 233.857 132.799 234.859 132.344C235.862 131.87 236.637 131.159 237.184 130.211C237.73 129.245 238.022 128.014 238.059 126.52ZM267.098 132.562V120.367C267.098 119.529 266.979 118.809 266.742 118.207C266.505 117.605 266.132 117.141 265.621 116.812C265.111 116.466 264.427 116.293 263.57 116.293C262.878 116.293 262.285 116.411 261.793 116.648C261.301 116.885 260.927 117.241 260.672 117.715C260.417 118.189 260.289 118.79 260.289 119.52H251.074C251.074 118.152 251.375 116.885 251.977 115.719C252.596 114.534 253.471 113.504 254.602 112.629C255.75 111.754 257.117 111.079 258.703 110.605C260.307 110.113 262.094 109.867 264.062 109.867C266.414 109.867 268.51 110.259 270.352 111.043C272.211 111.827 273.678 113.003 274.754 114.57C275.829 116.12 276.367 118.07 276.367 120.422V132.535C276.367 134.467 276.477 135.935 276.695 136.938C276.914 137.922 277.224 138.788 277.625 139.535V140H268.383C267.945 139.089 267.617 137.977 267.398 136.664C267.198 135.333 267.098 133.966 267.098 132.562ZM268.219 121.926L268.273 126.848H264.199C263.342 126.848 262.613 126.966 262.012 127.203C261.428 127.44 260.954 127.768 260.59 128.188C260.243 128.589 259.988 129.044 259.824 129.555C259.678 130.065 259.605 130.603 259.605 131.168C259.605 131.715 259.733 132.207 259.988 132.645C260.262 133.064 260.626 133.392 261.082 133.629C261.538 133.866 262.048 133.984 262.613 133.984C263.634 133.984 264.5 133.793 265.211 133.41C265.94 133.009 266.496 132.526 266.879 131.961C267.262 131.396 267.453 130.867 267.453 130.375L269.477 134.148C269.112 134.878 268.693 135.616 268.219 136.363C267.763 137.111 267.189 137.803 266.496 138.441C265.822 139.061 264.992 139.572 264.008 139.973C263.023 140.355 261.829 140.547 260.426 140.547C258.603 140.547 256.926 140.173 255.395 139.426C253.882 138.678 252.669 137.639 251.758 136.309C250.846 134.96 250.391 133.41 250.391 131.66C250.391 130.129 250.664 128.762 251.211 127.559C251.776 126.355 252.624 125.335 253.754 124.496C254.884 123.658 256.324 123.02 258.074 122.582C259.824 122.145 261.884 121.926 264.254 121.926H268.219ZM290.777 117.742V140H281.562V110.414H290.176L290.777 117.742ZM299.527 110.195L299.363 118.754C298.999 118.717 298.507 118.672 297.887 118.617C297.267 118.562 296.747 118.535 296.328 118.535C295.253 118.535 294.323 118.663 293.539 118.918C292.773 119.155 292.135 119.52 291.625 120.012C291.133 120.486 290.768 121.087 290.531 121.816C290.312 122.546 290.212 123.393 290.23 124.359L288.562 123.266C288.562 121.279 288.754 119.474 289.137 117.852C289.538 116.211 290.103 114.798 290.832 113.613C291.561 112.41 292.445 111.49 293.484 110.852C294.523 110.195 295.69 109.867 296.984 109.867C297.44 109.867 297.887 109.895 298.324 109.949C298.78 110.004 299.181 110.086 299.527 110.195ZM316.48 140.547C314.074 140.547 311.923 140.173 310.027 139.426C308.132 138.66 306.527 137.612 305.215 136.281C303.921 134.951 302.927 133.419 302.234 131.688C301.56 129.956 301.223 128.124 301.223 126.191V125.152C301.223 122.983 301.523 120.978 302.125 119.137C302.727 117.277 303.62 115.655 304.805 114.27C305.99 112.884 307.475 111.809 309.262 111.043C311.048 110.259 313.126 109.867 315.496 109.867C317.592 109.867 319.47 110.204 321.129 110.879C322.788 111.553 324.191 112.52 325.34 113.777C326.507 115.035 327.391 116.557 327.992 118.344C328.612 120.13 328.922 122.135 328.922 124.359V128.105H304.75V122.336H319.926V121.625C319.944 120.641 319.771 119.802 319.406 119.109C319.06 118.417 318.549 117.888 317.875 117.523C317.201 117.159 316.38 116.977 315.414 116.977C314.411 116.977 313.582 117.195 312.926 117.633C312.288 118.07 311.786 118.672 311.422 119.438C311.076 120.185 310.829 121.051 310.684 122.035C310.538 123.02 310.465 124.059 310.465 125.152V126.191C310.465 127.285 310.611 128.279 310.902 129.172C311.212 130.065 311.65 130.831 312.215 131.469C312.798 132.089 313.491 132.572 314.293 132.918C315.113 133.264 316.043 133.438 317.082 133.438C318.34 133.438 319.579 133.201 320.801 132.727C322.022 132.253 323.07 131.469 323.945 130.375L328.129 135.352C327.527 136.208 326.671 137.038 325.559 137.84C324.465 138.642 323.152 139.298 321.621 139.809C320.09 140.301 318.376 140.547 316.48 140.547Z" fill="black"/>
<rect x="93" y="178" width="917" height="77" rx="10" fill="#D3D3D3"/>
<rect x="111" y="196" width="98" height="41" rx="3" fill="#424242"/>
<path d="M137.078 210.203V223H133.993V210.203H137.078ZM142.053 215.529V217.902H136.199V215.529H142.053ZM142.554 210.203V212.585H136.199V210.203H142.554ZM146.825 209.5V223H143.854V209.5H146.825ZM154.208 220.688V213.49H157.179V223H154.401L154.208 220.688ZM154.489 218.755L155.263 218.737C155.263 219.376 155.187 219.968 155.034 220.513C154.882 221.052 154.656 221.521 154.357 221.919C154.064 222.317 153.701 222.628 153.268 222.851C152.84 223.067 152.345 223.176 151.782 223.176C151.313 223.176 150.883 223.111 150.49 222.982C150.104 222.848 149.77 222.64 149.488 222.358C149.207 222.071 148.987 221.705 148.829 221.26C148.677 220.809 148.601 220.27 148.601 219.643V213.49H151.562V219.66C151.562 219.871 151.589 220.053 151.642 220.205C151.694 220.357 151.771 220.486 151.87 220.592C151.97 220.691 152.093 220.768 152.239 220.82C152.392 220.867 152.564 220.891 152.758 220.891C153.203 220.891 153.552 220.797 153.804 220.609C154.056 220.422 154.231 220.167 154.331 219.845C154.437 219.522 154.489 219.159 154.489 218.755ZM163.823 213.49V215.547H158.093V213.49H163.823ZM159.297 211.126H162.259V219.897C162.259 220.149 162.288 220.346 162.347 220.486C162.405 220.621 162.505 220.718 162.646 220.776C162.792 220.829 162.985 220.855 163.226 220.855C163.396 220.855 163.536 220.853 163.647 220.847C163.759 220.835 163.864 220.82 163.964 220.803V222.921C163.712 223.003 163.448 223.064 163.173 223.105C162.897 223.152 162.604 223.176 162.294 223.176C161.661 223.176 161.119 223.076 160.668 222.877C160.223 222.678 159.883 222.364 159.648 221.937C159.414 221.509 159.297 220.952 159.297 220.267V211.126ZM170.011 213.49V215.547H164.28V213.49H170.011ZM165.484 211.126H168.446V219.897C168.446 220.149 168.476 220.346 168.534 220.486C168.593 220.621 168.692 220.718 168.833 220.776C168.979 220.829 169.173 220.855 169.413 220.855C169.583 220.855 169.724 220.853 169.835 220.847C169.946 220.835 170.052 220.82 170.151 220.803V222.921C169.899 223.003 169.636 223.064 169.36 223.105C169.085 223.152 168.792 223.176 168.481 223.176C167.849 223.176 167.307 223.076 166.855 222.877C166.41 222.678 166.07 222.364 165.836 221.937C165.602 221.509 165.484 220.952 165.484 220.267V211.126ZM175.794 223.176C175.021 223.176 174.329 223.056 173.72 222.815C173.11 222.569 172.595 222.232 172.173 221.805C171.757 221.377 171.438 220.885 171.215 220.328C170.998 219.771 170.89 219.183 170.89 218.562V218.228C170.89 217.53 170.986 216.886 171.18 216.294C171.373 215.696 171.66 215.175 172.041 214.729C172.422 214.284 172.899 213.938 173.474 213.692C174.048 213.44 174.716 213.314 175.478 213.314C176.151 213.314 176.755 213.423 177.288 213.64C177.821 213.856 178.272 214.167 178.642 214.571C179.017 214.976 179.301 215.465 179.494 216.039C179.693 216.613 179.793 217.258 179.793 217.973V219.177H172.023V217.322H176.901V217.094C176.907 216.777 176.852 216.508 176.734 216.285C176.623 216.062 176.459 215.893 176.242 215.775C176.025 215.658 175.762 215.6 175.451 215.6C175.129 215.6 174.862 215.67 174.651 215.811C174.446 215.951 174.285 216.145 174.168 216.391C174.057 216.631 173.978 216.909 173.931 217.226C173.884 217.542 173.86 217.876 173.86 218.228V218.562C173.86 218.913 173.907 219.232 174.001 219.52C174.101 219.807 174.241 220.053 174.423 220.258C174.61 220.457 174.833 220.612 175.091 220.724C175.354 220.835 175.653 220.891 175.987 220.891C176.392 220.891 176.79 220.814 177.183 220.662C177.575 220.51 177.912 220.258 178.193 219.906L179.538 221.506C179.345 221.781 179.069 222.048 178.712 222.306C178.36 222.563 177.938 222.774 177.446 222.938C176.954 223.097 176.403 223.176 175.794 223.176ZM183.985 215.846V223H181.023V213.49H183.792L183.985 215.846ZM186.798 213.42L186.745 216.171C186.628 216.159 186.47 216.145 186.271 216.127C186.071 216.109 185.904 216.101 185.77 216.101C185.424 216.101 185.125 216.142 184.873 216.224C184.627 216.3 184.422 216.417 184.258 216.575C184.1 216.728 183.982 216.921 183.906 217.155C183.836 217.39 183.804 217.662 183.81 217.973L183.273 217.621C183.273 216.982 183.335 216.402 183.458 215.881C183.587 215.354 183.769 214.899 184.003 214.519C184.237 214.132 184.521 213.836 184.855 213.631C185.189 213.42 185.564 213.314 185.98 213.314C186.127 213.314 186.271 213.323 186.411 213.341C186.558 213.358 186.687 213.385 186.798 213.42Z" fill="white"/>
<rect x="111" y="196" width="98" height="41" rx="3" stroke="#424242" stroke-width="4"/>
<rect x="229" y="196" width="91" height="41" rx="3" fill="#424242"/>
<path d="M252.141 210.203H257.177C258.161 210.203 259.017 210.35 259.743 210.643C260.47 210.936 261.029 211.369 261.422 211.943C261.82 212.518 262.02 213.227 262.02 214.07C262.02 214.803 261.905 215.415 261.677 215.907C261.448 216.399 261.129 216.807 260.719 217.129C260.314 217.445 259.843 217.706 259.304 217.911L258.293 218.482H254.065L254.048 216.101H257.177C257.569 216.101 257.895 216.03 258.152 215.89C258.41 215.749 258.604 215.55 258.732 215.292C258.867 215.028 258.935 214.715 258.935 214.352C258.935 213.982 258.867 213.666 258.732 213.402C258.598 213.139 258.398 212.937 258.135 212.796C257.877 212.655 257.558 212.585 257.177 212.585H255.226V223H252.141V210.203ZM259.146 223L256.315 217.34L259.585 217.322L262.45 222.868V223H259.146ZM268.348 223.176C267.574 223.176 266.883 223.056 266.273 222.815C265.664 222.569 265.148 222.232 264.727 221.805C264.311 221.377 263.991 220.885 263.769 220.328C263.552 219.771 263.443 219.183 263.443 218.562V218.228C263.443 217.53 263.54 216.886 263.733 216.294C263.927 215.696 264.214 215.175 264.595 214.729C264.976 214.284 265.453 213.938 266.027 213.692C266.602 213.44 267.27 213.314 268.031 213.314C268.705 213.314 269.309 213.423 269.842 213.64C270.375 213.856 270.826 214.167 271.195 214.571C271.57 214.976 271.854 215.465 272.048 216.039C272.247 216.613 272.347 217.258 272.347 217.973V219.177H264.577V217.322H269.455V217.094C269.461 216.777 269.405 216.508 269.288 216.285C269.177 216.062 269.013 215.893 268.796 215.775C268.579 215.658 268.315 215.6 268.005 215.6C267.683 215.6 267.416 215.67 267.205 215.811C267 215.951 266.839 216.145 266.722 216.391C266.61 216.631 266.531 216.909 266.484 217.226C266.438 217.542 266.414 217.876 266.414 218.228V218.562C266.414 218.913 266.461 219.232 266.555 219.52C266.654 219.807 266.795 220.053 266.977 220.258C267.164 220.457 267.387 220.612 267.645 220.724C267.908 220.835 268.207 220.891 268.541 220.891C268.945 220.891 269.344 220.814 269.736 220.662C270.129 220.51 270.466 220.258 270.747 219.906L272.092 221.506C271.898 221.781 271.623 222.048 271.266 222.306C270.914 222.563 270.492 222.774 270 222.938C269.508 223.097 268.957 223.176 268.348 223.176ZM278.49 220.609V216.689C278.49 216.42 278.452 216.188 278.376 215.995C278.3 215.802 278.18 215.652 278.016 215.547C277.852 215.436 277.632 215.38 277.356 215.38C277.134 215.38 276.943 215.418 276.785 215.494C276.627 215.57 276.507 215.685 276.425 215.837C276.343 215.989 276.302 216.183 276.302 216.417H273.34C273.34 215.978 273.437 215.57 273.63 215.195C273.829 214.814 274.11 214.483 274.474 214.202C274.843 213.921 275.282 213.704 275.792 213.552C276.308 213.394 276.882 213.314 277.515 213.314C278.271 213.314 278.944 213.44 279.536 213.692C280.134 213.944 280.605 214.322 280.951 214.826C281.297 215.324 281.47 215.951 281.47 216.707V220.601C281.47 221.222 281.505 221.693 281.575 222.016C281.646 222.332 281.745 222.61 281.874 222.851V223H278.903C278.763 222.707 278.657 222.35 278.587 221.928C278.522 221.5 278.49 221.061 278.49 220.609ZM278.851 217.19L278.868 218.772H277.559C277.283 218.772 277.049 218.811 276.855 218.887C276.668 218.963 276.516 219.068 276.398 219.203C276.287 219.332 276.205 219.479 276.152 219.643C276.105 219.807 276.082 219.979 276.082 220.161C276.082 220.337 276.123 220.495 276.205 220.636C276.293 220.771 276.41 220.876 276.557 220.952C276.703 221.028 276.867 221.066 277.049 221.066C277.377 221.066 277.655 221.005 277.884 220.882C278.118 220.753 278.297 220.598 278.42 220.416C278.543 220.234 278.604 220.064 278.604 219.906L279.255 221.119C279.138 221.354 279.003 221.591 278.851 221.831C278.704 222.071 278.52 222.294 278.297 222.499C278.08 222.698 277.813 222.862 277.497 222.991C277.181 223.114 276.797 223.176 276.346 223.176C275.76 223.176 275.221 223.056 274.729 222.815C274.242 222.575 273.853 222.241 273.56 221.813C273.267 221.38 273.12 220.882 273.12 220.319C273.12 219.827 273.208 219.388 273.384 219.001C273.565 218.614 273.838 218.286 274.201 218.017C274.564 217.747 275.027 217.542 275.59 217.401C276.152 217.261 276.814 217.19 277.576 217.19H278.851ZM287.13 220.891C287.405 220.891 287.64 220.841 287.833 220.741C288.032 220.636 288.182 220.489 288.281 220.302C288.387 220.108 288.437 219.877 288.431 219.607H291.217C291.223 220.322 291.047 220.949 290.689 221.488C290.338 222.021 289.857 222.438 289.248 222.736C288.645 223.029 287.962 223.176 287.2 223.176C286.456 223.176 285.806 223.056 285.249 222.815C284.692 222.569 284.227 222.229 283.852 221.796C283.482 221.356 283.204 220.844 283.017 220.258C282.835 219.672 282.744 219.036 282.744 218.351V218.148C282.744 217.463 282.835 216.827 283.017 216.241C283.204 215.649 283.482 215.137 283.852 214.703C284.227 214.264 284.689 213.924 285.24 213.684C285.797 213.438 286.444 213.314 287.183 213.314C287.974 213.314 288.671 213.464 289.274 213.763C289.884 214.062 290.361 214.495 290.707 215.063C291.053 215.632 291.223 216.32 291.217 217.129H288.431C288.437 216.842 288.393 216.584 288.299 216.355C288.205 216.127 288.059 215.945 287.859 215.811C287.666 215.67 287.417 215.6 287.112 215.6C286.808 215.6 286.562 215.667 286.374 215.802C286.187 215.937 286.043 216.124 285.943 216.364C285.85 216.599 285.785 216.868 285.75 217.173C285.721 217.478 285.706 217.803 285.706 218.148V218.351C285.706 218.702 285.721 219.033 285.75 219.344C285.785 219.648 285.853 219.918 285.952 220.152C286.052 220.381 286.195 220.562 286.383 220.697C286.57 220.826 286.819 220.891 287.13 220.891ZM297.492 213.49V215.547H291.762V213.49H297.492ZM292.966 211.126H295.928V219.897C295.928 220.149 295.957 220.346 296.016 220.486C296.074 220.621 296.174 220.718 296.314 220.776C296.461 220.829 296.654 220.855 296.895 220.855C297.064 220.855 297.205 220.853 297.316 220.847C297.428 220.835 297.533 220.82 297.633 220.803V222.921C297.381 223.003 297.117 223.064 296.842 223.105C296.566 223.152 296.273 223.176 295.963 223.176C295.33 223.176 294.788 223.076 294.337 222.877C293.892 222.678 293.552 222.364 293.317 221.937C293.083 221.509 292.966 220.952 292.966 220.267V211.126Z" fill="white"/>
<rect x="229" y="196" width="91" height="41" rx="3" stroke="#424242" stroke-width="4"/>
<rect x="340" y="196" width="132" height="41" rx="3" fill="#424242"/>
<path d="M368.559 218.983V210.203H371.635V218.983C371.635 219.839 371.438 220.58 371.046 221.207C370.659 221.834 370.132 222.32 369.464 222.666C368.802 223.006 368.058 223.176 367.231 223.176C366.376 223.176 365.614 223.032 364.946 222.745C364.284 222.458 363.763 222.016 363.382 221.418C363.007 220.82 362.819 220.059 362.819 219.133H365.913C365.913 219.566 365.963 219.906 366.062 220.152C366.162 220.393 366.309 220.562 366.502 220.662C366.701 220.756 366.944 220.803 367.231 220.803C367.513 220.803 367.75 220.732 367.943 220.592C368.143 220.445 368.295 220.237 368.4 219.968C368.506 219.692 368.559 219.364 368.559 218.983ZM378.394 220.609V216.689C378.394 216.42 378.355 216.188 378.279 215.995C378.203 215.802 378.083 215.652 377.919 215.547C377.755 215.436 377.535 215.38 377.26 215.38C377.037 215.38 376.847 215.418 376.688 215.494C376.53 215.57 376.41 215.685 376.328 215.837C376.246 215.989 376.205 216.183 376.205 216.417H373.243C373.243 215.978 373.34 215.57 373.533 215.195C373.732 214.814 374.014 214.483 374.377 214.202C374.746 213.921 375.186 213.704 375.695 213.552C376.211 213.394 376.785 213.314 377.418 213.314C378.174 213.314 378.848 213.44 379.439 213.692C380.037 213.944 380.509 214.322 380.854 214.826C381.2 215.324 381.373 215.951 381.373 216.707V220.601C381.373 221.222 381.408 221.693 381.479 222.016C381.549 222.332 381.648 222.61 381.777 222.851V223H378.807C378.666 222.707 378.561 222.35 378.49 221.928C378.426 221.5 378.394 221.061 378.394 220.609ZM378.754 217.19L378.771 218.772H377.462C377.187 218.772 376.952 218.811 376.759 218.887C376.571 218.963 376.419 219.068 376.302 219.203C376.19 219.332 376.108 219.479 376.056 219.643C376.009 219.807 375.985 219.979 375.985 220.161C375.985 220.337 376.026 220.495 376.108 220.636C376.196 220.771 376.313 220.876 376.46 220.952C376.606 221.028 376.771 221.066 376.952 221.066C377.28 221.066 377.559 221.005 377.787 220.882C378.021 220.753 378.2 220.598 378.323 220.416C378.446 220.234 378.508 220.064 378.508 219.906L379.158 221.119C379.041 221.354 378.906 221.591 378.754 221.831C378.607 222.071 378.423 222.294 378.2 222.499C377.983 222.698 377.717 222.862 377.4 222.991C377.084 223.114 376.7 223.176 376.249 223.176C375.663 223.176 375.124 223.056 374.632 222.815C374.146 222.575 373.756 222.241 373.463 221.813C373.17 221.38 373.023 220.882 373.023 220.319C373.023 219.827 373.111 219.388 373.287 219.001C373.469 218.614 373.741 218.286 374.104 218.017C374.468 217.747 374.931 217.542 375.493 217.401C376.056 217.261 376.718 217.19 377.479 217.19H378.754ZM386.304 220.97L388.176 213.49H391.296L388.185 223H386.339L386.304 220.97ZM385.196 213.49L387.042 220.97L387.024 223H385.17L382.067 213.49H385.196ZM396.974 220.609V216.689C396.974 216.42 396.936 216.188 396.859 215.995C396.783 215.802 396.663 215.652 396.499 215.547C396.335 215.436 396.115 215.38 395.84 215.38C395.617 215.38 395.427 215.418 395.269 215.494C395.11 215.57 394.99 215.685 394.908 215.837C394.826 215.989 394.785 216.183 394.785 216.417H391.823C391.823 215.978 391.92 215.57 392.113 215.195C392.312 214.814 392.594 214.483 392.957 214.202C393.326 213.921 393.766 213.704 394.275 213.552C394.791 213.394 395.365 213.314 395.998 213.314C396.754 213.314 397.428 213.44 398.02 213.692C398.617 213.944 399.089 214.322 399.435 214.826C399.78 215.324 399.953 215.951 399.953 216.707V220.601C399.953 221.222 399.988 221.693 400.059 222.016C400.129 222.332 400.229 222.61 400.357 222.851V223H397.387C397.246 222.707 397.141 222.35 397.07 221.928C397.006 221.5 396.974 221.061 396.974 220.609ZM397.334 217.19L397.352 218.772H396.042C395.767 218.772 395.532 218.811 395.339 218.887C395.151 218.963 394.999 219.068 394.882 219.203C394.771 219.332 394.688 219.479 394.636 219.643C394.589 219.807 394.565 219.979 394.565 220.161C394.565 220.337 394.606 220.495 394.688 220.636C394.776 220.771 394.894 220.876 395.04 220.952C395.187 221.028 395.351 221.066 395.532 221.066C395.86 221.066 396.139 221.005 396.367 220.882C396.602 220.753 396.78 220.598 396.903 220.416C397.026 220.234 397.088 220.064 397.088 219.906L397.738 221.119C397.621 221.354 397.486 221.591 397.334 221.831C397.188 222.071 397.003 222.294 396.78 222.499C396.563 222.698 396.297 222.862 395.98 222.991C395.664 223.114 395.28 223.176 394.829 223.176C394.243 223.176 393.704 223.056 393.212 222.815C392.726 222.575 392.336 222.241 392.043 221.813C391.75 221.38 391.604 220.882 391.604 220.319C391.604 219.827 391.691 219.388 391.867 219.001C392.049 218.614 392.321 218.286 392.685 218.017C393.048 217.747 393.511 217.542 394.073 217.401C394.636 217.261 395.298 217.19 396.06 217.19H397.334ZM408.329 219.599C408.329 219.399 408.3 219.221 408.241 219.062C408.183 218.898 408.074 218.746 407.916 218.605C407.758 218.465 407.529 218.324 407.23 218.184C406.938 218.037 406.551 217.885 406.07 217.727C405.508 217.539 404.966 217.328 404.444 217.094C403.923 216.854 403.457 216.575 403.047 216.259C402.637 215.937 402.312 215.562 402.071 215.134C401.831 214.7 401.711 214.196 401.711 213.622C401.711 213.071 401.834 212.576 402.08 212.137C402.326 211.691 402.669 211.313 403.108 211.003C403.554 210.687 404.075 210.446 404.673 210.282C405.271 210.112 405.924 210.027 406.633 210.027C407.57 210.027 408.396 210.191 409.111 210.52C409.832 210.842 410.395 211.302 410.799 211.899C411.209 212.491 411.414 213.191 411.414 214H408.347C408.347 213.678 408.279 213.394 408.145 213.147C408.016 212.901 407.819 212.708 407.556 212.567C407.292 212.427 406.961 212.356 406.562 212.356C406.176 212.356 405.851 212.415 405.587 212.532C405.323 212.649 405.124 212.808 404.989 213.007C404.854 213.2 404.787 213.414 404.787 213.648C404.787 213.842 404.84 214.018 404.945 214.176C405.057 214.328 405.212 214.472 405.411 214.606C405.616 214.741 405.862 214.87 406.149 214.993C406.442 215.116 406.771 215.236 407.134 215.354C407.813 215.57 408.417 215.813 408.944 216.083C409.478 216.347 409.926 216.648 410.289 216.988C410.658 217.322 410.937 217.703 411.124 218.131C411.317 218.559 411.414 219.042 411.414 219.581C411.414 220.155 411.303 220.665 411.08 221.11C410.857 221.556 410.538 221.934 410.122 222.244C409.706 222.549 409.208 222.78 408.628 222.938C408.048 223.097 407.4 223.176 406.686 223.176C406.029 223.176 405.382 223.094 404.743 222.93C404.11 222.76 403.536 222.502 403.021 222.156C402.505 221.805 402.092 221.356 401.781 220.812C401.477 220.261 401.324 219.607 401.324 218.852H404.418C404.418 219.227 404.468 219.543 404.567 219.801C404.667 220.059 404.813 220.267 405.007 220.425C405.2 220.577 405.438 220.688 405.719 220.759C406 220.823 406.322 220.855 406.686 220.855C407.078 220.855 407.395 220.8 407.635 220.688C407.875 220.571 408.051 220.419 408.162 220.231C408.273 220.038 408.329 219.827 408.329 219.599ZM416.881 220.891C417.156 220.891 417.391 220.841 417.584 220.741C417.783 220.636 417.933 220.489 418.032 220.302C418.138 220.108 418.188 219.877 418.182 219.607H420.968C420.974 220.322 420.798 220.949 420.44 221.488C420.089 222.021 419.608 222.438 418.999 222.736C418.396 223.029 417.713 223.176 416.951 223.176C416.207 223.176 415.557 223.056 415 222.815C414.443 222.569 413.978 222.229 413.603 221.796C413.233 221.356 412.955 220.844 412.768 220.258C412.586 219.672 412.495 219.036 412.495 218.351V218.148C412.495 217.463 412.586 216.827 412.768 216.241C412.955 215.649 413.233 215.137 413.603 214.703C413.978 214.264 414.44 213.924 414.991 213.684C415.548 213.438 416.195 213.314 416.934 213.314C417.725 213.314 418.422 213.464 419.025 213.763C419.635 214.062 420.112 214.495 420.458 215.063C420.804 215.632 420.974 216.32 420.968 217.129H418.182C418.188 216.842 418.144 216.584 418.05 216.355C417.956 216.127 417.81 215.945 417.61 215.811C417.417 215.67 417.168 215.6 416.863 215.6C416.559 215.6 416.312 215.667 416.125 215.802C415.938 215.937 415.794 216.124 415.694 216.364C415.601 216.599 415.536 216.868 415.501 217.173C415.472 217.478 415.457 217.803 415.457 218.148V218.351C415.457 218.702 415.472 219.033 415.501 219.344C415.536 219.648 415.604 219.918 415.703 220.152C415.803 220.381 415.946 220.562 416.134 220.697C416.321 220.826 416.57 220.891 416.881 220.891ZM425.222 215.846V223H422.26V213.49H425.028L425.222 215.846ZM428.034 213.42L427.981 216.171C427.864 216.159 427.706 216.145 427.507 216.127C427.308 216.109 427.141 216.101 427.006 216.101C426.66 216.101 426.361 216.142 426.109 216.224C425.863 216.3 425.658 216.417 425.494 216.575C425.336 216.728 425.219 216.921 425.143 217.155C425.072 217.39 425.04 217.662 425.046 217.973L424.51 217.621C424.51 216.982 424.571 216.402 424.694 215.881C424.823 215.354 425.005 214.899 425.239 214.519C425.474 214.132 425.758 213.836 426.092 213.631C426.426 213.42 426.801 213.314 427.217 213.314C427.363 213.314 427.507 213.323 427.647 213.341C427.794 213.358 427.923 213.385 428.034 213.42ZM432.183 213.49V223H429.212V213.49H432.183ZM429.036 211.038C429.036 210.616 429.188 210.271 429.493 210.001C429.798 209.731 430.193 209.597 430.68 209.597C431.166 209.597 431.562 209.731 431.866 210.001C432.171 210.271 432.323 210.616 432.323 211.038C432.323 211.46 432.171 211.806 431.866 212.075C431.562 212.345 431.166 212.479 430.68 212.479C430.193 212.479 429.798 212.345 429.493 212.075C429.188 211.806 429.036 211.46 429.036 211.038ZM436.999 215.318V226.656H434.037V213.49H436.797L436.999 215.318ZM442.835 218.131V218.315C442.835 219.007 442.756 219.648 442.598 220.24C442.439 220.832 442.205 221.348 441.895 221.787C441.584 222.227 441.197 222.569 440.734 222.815C440.277 223.056 439.747 223.176 439.144 223.176C438.575 223.176 438.086 223.05 437.676 222.798C437.266 222.546 436.923 222.197 436.647 221.752C436.372 221.307 436.149 220.797 435.979 220.223C435.81 219.648 435.675 219.042 435.575 218.403V218.166C435.675 217.48 435.81 216.845 435.979 216.259C436.149 215.667 436.372 215.151 436.647 214.712C436.923 214.272 437.263 213.93 437.667 213.684C438.077 213.438 438.566 213.314 439.135 213.314C439.738 213.314 440.269 213.429 440.726 213.657C441.188 213.886 441.575 214.214 441.886 214.642C442.202 215.063 442.439 215.57 442.598 216.162C442.756 216.754 442.835 217.41 442.835 218.131ZM439.873 218.315V218.131C439.873 217.762 439.847 217.425 439.794 217.12C439.741 216.81 439.656 216.54 439.539 216.312C439.428 216.083 439.278 215.907 439.091 215.784C438.903 215.661 438.672 215.6 438.396 215.6C438.08 215.6 437.813 215.649 437.597 215.749C437.386 215.843 437.216 215.989 437.087 216.188C436.964 216.382 436.876 216.625 436.823 216.918C436.776 217.205 436.756 217.542 436.762 217.929V218.649C436.75 219.095 436.794 219.487 436.894 219.827C436.993 220.161 437.166 220.422 437.412 220.609C437.658 220.797 437.992 220.891 438.414 220.891C438.695 220.891 438.93 220.826 439.117 220.697C439.305 220.562 439.454 220.378 439.565 220.144C439.677 219.903 439.756 219.628 439.803 219.317C439.85 219.007 439.873 218.673 439.873 218.315ZM449.163 213.49V215.547H443.433V213.49H449.163ZM444.637 211.126H447.599V219.897C447.599 220.149 447.628 220.346 447.687 220.486C447.745 220.621 447.845 220.718 447.985 220.776C448.132 220.829 448.325 220.855 448.565 220.855C448.735 220.855 448.876 220.853 448.987 220.847C449.099 220.835 449.204 220.82 449.304 220.803V222.921C449.052 223.003 448.788 223.064 448.513 223.105C448.237 223.152 447.944 223.176 447.634 223.176C447.001 223.176 446.459 223.076 446.008 222.877C445.562 222.678 445.223 222.364 444.988 221.937C444.754 221.509 444.637 220.952 444.637 220.267V211.126Z" fill="white"/>
<rect x="340" y="196" width="132" height="41" rx="3" stroke="#424242" stroke-width="4"/>
<rect x="492" y="196" width="130" height="41" rx="3" fill="#424242"/>
<path d="M523.883 220.627V223H517.062V220.627H523.883ZM518.161 210.203V223H515.076V210.203H518.161ZM523.004 215.283V217.577H517.062V215.283H523.004ZM523.909 210.203V212.585H517.062V210.203H523.909ZM527.521 213.49L528.857 216.109L530.237 213.49H533.313L530.817 218.122L533.445 223H530.343L528.857 220.188L527.381 223H524.278L526.906 218.122L524.419 213.49H527.521ZM537.277 215.318V226.656H534.315V213.49H537.075L537.277 215.318ZM543.113 218.131V218.315C543.113 219.007 543.034 219.648 542.876 220.24C542.718 220.832 542.483 221.348 542.173 221.787C541.862 222.227 541.476 222.569 541.013 222.815C540.556 223.056 540.025 223.176 539.422 223.176C538.854 223.176 538.364 223.05 537.954 222.798C537.544 222.546 537.201 222.197 536.926 221.752C536.65 221.307 536.428 220.797 536.258 220.223C536.088 219.648 535.953 219.042 535.854 218.403V218.166C535.953 217.48 536.088 216.845 536.258 216.259C536.428 215.667 536.65 215.151 536.926 214.712C537.201 214.272 537.541 213.93 537.945 213.684C538.355 213.438 538.845 213.314 539.413 213.314C540.017 213.314 540.547 213.429 541.004 213.657C541.467 213.886 541.854 214.214 542.164 214.642C542.48 215.063 542.718 215.57 542.876 216.162C543.034 216.754 543.113 217.41 543.113 218.131ZM540.151 218.315V218.131C540.151 217.762 540.125 217.425 540.072 217.12C540.02 216.81 539.935 216.54 539.817 216.312C539.706 216.083 539.557 215.907 539.369 215.784C539.182 215.661 538.95 215.6 538.675 215.6C538.358 215.6 538.092 215.649 537.875 215.749C537.664 215.843 537.494 215.989 537.365 216.188C537.242 216.382 537.154 216.625 537.102 216.918C537.055 217.205 537.034 217.542 537.04 217.929V218.649C537.028 219.095 537.072 219.487 537.172 219.827C537.271 220.161 537.444 220.422 537.69 220.609C537.937 220.797 538.271 220.891 538.692 220.891C538.974 220.891 539.208 220.826 539.396 220.697C539.583 220.562 539.732 220.378 539.844 220.144C539.955 219.903 540.034 219.628 540.081 219.317C540.128 219.007 540.151 218.673 540.151 218.315ZM547.42 215.846V223H544.458V213.49H547.227L547.42 215.846ZM550.232 213.42L550.18 216.171C550.062 216.159 549.904 216.145 549.705 216.127C549.506 216.109 549.339 216.101 549.204 216.101C548.858 216.101 548.56 216.142 548.308 216.224C548.062 216.3 547.856 216.417 547.692 216.575C547.534 216.728 547.417 216.921 547.341 217.155C547.271 217.39 547.238 217.662 547.244 217.973L546.708 217.621C546.708 216.982 546.77 216.402 546.893 215.881C547.021 215.354 547.203 214.899 547.438 214.519C547.672 214.132 547.956 213.836 548.29 213.631C548.624 213.42 548.999 213.314 549.415 213.314C549.562 213.314 549.705 213.323 549.846 213.341C549.992 213.358 550.121 213.385 550.232 213.42ZM555.682 223.176C554.908 223.176 554.217 223.056 553.607 222.815C552.998 222.569 552.482 222.232 552.061 221.805C551.645 221.377 551.325 220.885 551.103 220.328C550.886 219.771 550.777 219.183 550.777 218.562V218.228C550.777 217.53 550.874 216.886 551.067 216.294C551.261 215.696 551.548 215.175 551.929 214.729C552.31 214.284 552.787 213.938 553.361 213.692C553.936 213.44 554.604 213.314 555.365 213.314C556.039 213.314 556.643 213.423 557.176 213.64C557.709 213.856 558.16 214.167 558.529 214.571C558.904 214.976 559.188 215.465 559.382 216.039C559.581 216.613 559.681 217.258 559.681 217.973V219.177H551.911V217.322H556.789V217.094C556.795 216.777 556.739 216.508 556.622 216.285C556.511 216.062 556.347 215.893 556.13 215.775C555.913 215.658 555.649 215.6 555.339 215.6C555.017 215.6 554.75 215.67 554.539 215.811C554.334 215.951 554.173 216.145 554.056 216.391C553.944 216.631 553.865 216.909 553.818 217.226C553.771 217.542 553.748 217.876 553.748 218.228V218.562C553.748 218.913 553.795 219.232 553.889 219.52C553.988 219.807 554.129 220.053 554.311 220.258C554.498 220.457 554.721 220.612 554.979 220.724C555.242 220.835 555.541 220.891 555.875 220.891C556.279 220.891 556.678 220.814 557.07 220.662C557.463 220.51 557.8 220.258 558.081 219.906L559.426 221.506C559.232 221.781 558.957 222.048 558.6 222.306C558.248 222.563 557.826 222.774 557.334 222.938C556.842 223.097 556.291 223.176 555.682 223.176ZM565.868 220.328C565.868 220.164 565.812 220.023 565.701 219.906C565.596 219.783 565.408 219.672 565.139 219.572C564.869 219.467 564.491 219.361 564.005 219.256C563.542 219.156 563.105 219.024 562.695 218.86C562.291 218.696 561.937 218.497 561.632 218.263C561.327 218.028 561.087 217.75 560.911 217.428C560.741 217.105 560.656 216.736 560.656 216.32C560.656 215.916 560.741 215.535 560.911 215.178C561.087 214.814 561.342 214.495 561.676 214.22C562.016 213.938 562.429 213.719 562.915 213.561C563.401 213.396 563.955 213.314 564.576 213.314C565.432 213.314 566.17 213.446 566.791 213.71C567.412 213.968 567.89 214.331 568.224 214.8C568.563 215.263 568.733 215.799 568.733 216.408H565.771C565.771 216.168 565.73 215.963 565.648 215.793C565.572 215.623 565.446 215.494 565.271 215.406C565.095 215.312 564.86 215.266 564.567 215.266C564.362 215.266 564.175 215.304 564.005 215.38C563.841 215.456 563.709 215.562 563.609 215.696C563.51 215.831 563.46 215.989 563.46 216.171C563.46 216.3 563.489 216.417 563.548 216.522C563.612 216.622 563.709 216.716 563.838 216.804C563.967 216.886 564.131 216.962 564.33 217.032C564.529 217.097 564.77 217.155 565.051 217.208C565.689 217.325 566.287 217.492 566.844 217.709C567.4 217.926 567.852 218.233 568.197 218.632C568.549 219.03 568.725 219.566 568.725 220.24C568.725 220.662 568.628 221.052 568.435 221.409C568.241 221.761 567.963 222.071 567.6 222.341C567.236 222.604 566.8 222.81 566.29 222.956C565.78 223.103 565.206 223.176 564.567 223.176C563.659 223.176 562.892 223.015 562.265 222.692C561.638 222.364 561.163 221.954 560.841 221.462C560.524 220.964 560.366 220.46 560.366 219.95H563.126C563.138 220.243 563.208 220.483 563.337 220.671C563.472 220.858 563.65 220.996 563.873 221.084C564.096 221.172 564.354 221.216 564.646 221.216C564.916 221.216 565.139 221.178 565.314 221.102C565.496 221.025 565.634 220.923 565.728 220.794C565.821 220.659 565.868 220.504 565.868 220.328ZM575.097 220.328C575.097 220.164 575.041 220.023 574.93 219.906C574.824 219.783 574.637 219.672 574.367 219.572C574.098 219.467 573.72 219.361 573.233 219.256C572.771 219.156 572.334 219.024 571.924 218.86C571.52 218.696 571.165 218.497 570.86 218.263C570.556 218.028 570.315 217.75 570.14 217.428C569.97 217.105 569.885 216.736 569.885 216.32C569.885 215.916 569.97 215.535 570.14 215.178C570.315 214.814 570.57 214.495 570.904 214.22C571.244 213.938 571.657 213.719 572.144 213.561C572.63 213.396 573.184 213.314 573.805 213.314C574.66 213.314 575.398 213.446 576.02 213.71C576.641 213.968 577.118 214.331 577.452 214.8C577.792 215.263 577.962 215.799 577.962 216.408H575C575 216.168 574.959 215.963 574.877 215.793C574.801 215.623 574.675 215.494 574.499 215.406C574.323 215.312 574.089 215.266 573.796 215.266C573.591 215.266 573.403 215.304 573.233 215.38C573.069 215.456 572.938 215.562 572.838 215.696C572.738 215.831 572.688 215.989 572.688 216.171C572.688 216.3 572.718 216.417 572.776 216.522C572.841 216.622 572.938 216.716 573.066 216.804C573.195 216.886 573.359 216.962 573.559 217.032C573.758 217.097 573.998 217.155 574.279 217.208C574.918 217.325 575.516 217.492 576.072 217.709C576.629 217.926 577.08 218.233 577.426 218.632C577.777 219.03 577.953 219.566 577.953 220.24C577.953 220.662 577.856 221.052 577.663 221.409C577.47 221.761 577.191 222.071 576.828 222.341C576.465 222.604 576.028 222.81 575.519 222.956C575.009 223.103 574.435 223.176 573.796 223.176C572.888 223.176 572.12 223.015 571.493 222.692C570.866 222.364 570.392 221.954 570.069 221.462C569.753 220.964 569.595 220.46 569.595 219.95H572.354C572.366 220.243 572.437 220.483 572.565 220.671C572.7 220.858 572.879 220.996 573.102 221.084C573.324 221.172 573.582 221.216 573.875 221.216C574.145 221.216 574.367 221.178 574.543 221.102C574.725 221.025 574.862 220.923 574.956 220.794C575.05 220.659 575.097 220.504 575.097 220.328ZM584.571 218.983V210.203H587.647V218.983C587.647 219.839 587.451 220.58 587.059 221.207C586.672 221.834 586.145 222.32 585.477 222.666C584.814 223.006 584.07 223.176 583.244 223.176C582.389 223.176 581.627 223.032 580.959 222.745C580.297 222.458 579.775 222.016 579.395 221.418C579.02 220.82 578.832 220.059 578.832 219.133H581.926C581.926 219.566 581.976 219.906 582.075 220.152C582.175 220.393 582.321 220.562 582.515 220.662C582.714 220.756 582.957 220.803 583.244 220.803C583.525 220.803 583.763 220.732 583.956 220.592C584.155 220.445 584.308 220.237 584.413 219.968C584.519 219.692 584.571 219.364 584.571 218.983ZM596.199 219.599C596.199 219.399 596.17 219.221 596.111 219.062C596.053 218.898 595.944 218.746 595.786 218.605C595.628 218.465 595.399 218.324 595.101 218.184C594.808 218.037 594.421 217.885 593.94 217.727C593.378 217.539 592.836 217.328 592.314 217.094C591.793 216.854 591.327 216.575 590.917 216.259C590.507 215.937 590.182 215.562 589.941 215.134C589.701 214.7 589.581 214.196 589.581 213.622C589.581 213.071 589.704 212.576 589.95 212.137C590.196 211.691 590.539 211.313 590.979 211.003C591.424 210.687 591.945 210.446 592.543 210.282C593.141 210.112 593.794 210.027 594.503 210.027C595.44 210.027 596.267 210.191 596.981 210.52C597.702 210.842 598.265 211.302 598.669 211.899C599.079 212.491 599.284 213.191 599.284 214H596.217C596.217 213.678 596.149 213.394 596.015 213.147C595.886 212.901 595.689 212.708 595.426 212.567C595.162 212.427 594.831 212.356 594.433 212.356C594.046 212.356 593.721 212.415 593.457 212.532C593.193 212.649 592.994 212.808 592.859 213.007C592.725 213.2 592.657 213.414 592.657 213.648C592.657 213.842 592.71 214.018 592.815 214.176C592.927 214.328 593.082 214.472 593.281 214.606C593.486 214.741 593.732 214.87 594.02 214.993C594.312 215.116 594.641 215.236 595.004 215.354C595.684 215.57 596.287 215.813 596.814 216.083C597.348 216.347 597.796 216.648 598.159 216.988C598.528 217.322 598.807 217.703 598.994 218.131C599.188 218.559 599.284 219.042 599.284 219.581C599.284 220.155 599.173 220.665 598.95 221.11C598.728 221.556 598.408 221.934 597.992 222.244C597.576 222.549 597.078 222.78 596.498 222.938C595.918 223.097 595.271 223.176 594.556 223.176C593.899 223.176 593.252 223.094 592.613 222.93C591.98 222.76 591.406 222.502 590.891 222.156C590.375 221.805 589.962 221.356 589.651 220.812C589.347 220.261 589.194 219.607 589.194 218.852H592.288C592.288 219.227 592.338 219.543 592.438 219.801C592.537 220.059 592.684 220.267 592.877 220.425C593.07 220.577 593.308 220.688 593.589 220.759C593.87 220.823 594.192 220.855 594.556 220.855C594.948 220.855 595.265 220.8 595.505 220.688C595.745 220.571 595.921 220.419 596.032 220.231C596.144 220.038 596.199 219.827 596.199 219.599Z" fill="white"/>
<rect x="492" y="196" width="130" height="41" rx="3" stroke="#424242" stroke-width="4"/>
<rect x="642" y="196" width="109" height="41" rx="3" fill="#424242"/>
<path d="M676.118 210.203V223H673.042L668.516 215.037V223H665.431V210.203H668.516L673.042 218.166V210.203H676.118ZM677.56 218.342V218.157C677.56 217.46 677.659 216.818 677.858 216.232C678.058 215.641 678.351 215.128 678.737 214.694C679.124 214.261 679.602 213.924 680.17 213.684C680.738 213.438 681.395 213.314 682.139 213.314C682.889 213.314 683.548 213.438 684.116 213.684C684.69 213.924 685.171 214.261 685.558 214.694C685.944 215.128 686.237 215.641 686.437 216.232C686.636 216.818 686.735 217.46 686.735 218.157V218.342C686.735 219.033 686.636 219.675 686.437 220.267C686.237 220.853 685.944 221.365 685.558 221.805C685.171 222.238 684.693 222.575 684.125 222.815C683.557 223.056 682.9 223.176 682.156 223.176C681.412 223.176 680.753 223.056 680.179 222.815C679.604 222.575 679.124 222.238 678.737 221.805C678.351 221.365 678.058 220.853 677.858 220.267C677.659 219.675 677.56 219.033 677.56 218.342ZM680.521 218.157V218.342C680.521 218.699 680.548 219.033 680.601 219.344C680.653 219.654 680.741 219.927 680.864 220.161C680.987 220.39 681.154 220.568 681.365 220.697C681.576 220.826 681.84 220.891 682.156 220.891C682.467 220.891 682.725 220.826 682.93 220.697C683.141 220.568 683.308 220.39 683.431 220.161C683.554 219.927 683.642 219.654 683.694 219.344C683.747 219.033 683.773 218.699 683.773 218.342V218.157C683.773 217.812 683.747 217.486 683.694 217.182C683.642 216.871 683.554 216.599 683.431 216.364C683.308 216.124 683.141 215.937 682.93 215.802C682.719 215.667 682.455 215.6 682.139 215.6C681.828 215.6 681.567 215.667 681.356 215.802C681.151 215.937 680.987 216.124 680.864 216.364C680.741 216.599 680.653 216.871 680.601 217.182C680.548 217.486 680.521 217.812 680.521 218.157ZM693.521 220.82V209.5H696.5V223H693.828L693.521 220.82ZM687.685 218.359V218.175C687.685 217.454 687.764 216.798 687.922 216.206C688.08 215.608 688.314 215.096 688.625 214.668C688.936 214.234 689.322 213.9 689.785 213.666C690.248 213.432 690.781 213.314 691.385 213.314C691.924 213.314 692.396 213.44 692.8 213.692C693.204 213.938 693.55 214.284 693.837 214.729C694.124 215.175 694.358 215.696 694.54 216.294C694.722 216.886 694.859 217.524 694.953 218.21V218.43C694.859 219.074 694.722 219.684 694.54 220.258C694.358 220.826 694.124 221.33 693.837 221.77C693.55 222.209 693.201 222.555 692.791 222.807C692.387 223.053 691.912 223.176 691.367 223.176C690.764 223.176 690.23 223.056 689.768 222.815C689.311 222.575 688.927 222.238 688.616 221.805C688.312 221.371 688.08 220.861 687.922 220.275C687.764 219.689 687.685 219.051 687.685 218.359ZM690.646 218.175V218.359C690.646 218.717 690.67 219.048 690.717 219.353C690.764 219.657 690.843 219.927 690.954 220.161C691.071 220.39 691.224 220.568 691.411 220.697C691.604 220.826 691.842 220.891 692.123 220.891C692.504 220.891 692.817 220.8 693.063 220.618C693.315 220.437 693.5 220.179 693.617 219.845C693.74 219.511 693.793 219.118 693.775 218.667V217.973C693.787 217.586 693.761 217.246 693.696 216.953C693.632 216.654 693.529 216.405 693.389 216.206C693.254 216.007 693.081 215.857 692.87 215.758C692.665 215.652 692.422 215.6 692.141 215.6C691.865 215.6 691.631 215.664 691.438 215.793C691.25 215.922 691.098 216.104 690.98 216.338C690.863 216.566 690.778 216.839 690.726 217.155C690.673 217.466 690.646 217.806 690.646 218.175ZM702.784 223.176C702.011 223.176 701.319 223.056 700.71 222.815C700.101 222.569 699.585 222.232 699.163 221.805C698.747 221.377 698.428 220.885 698.205 220.328C697.988 219.771 697.88 219.183 697.88 218.562V218.228C697.88 217.53 697.977 216.886 698.17 216.294C698.363 215.696 698.65 215.175 699.031 214.729C699.412 214.284 699.89 213.938 700.464 213.692C701.038 213.44 701.706 213.314 702.468 213.314C703.142 213.314 703.745 213.423 704.278 213.64C704.812 213.856 705.263 214.167 705.632 214.571C706.007 214.976 706.291 215.465 706.484 216.039C706.684 216.613 706.783 217.258 706.783 217.973V219.177H699.014V217.322H703.892V217.094C703.897 216.777 703.842 216.508 703.725 216.285C703.613 216.062 703.449 215.893 703.232 215.775C703.016 215.658 702.752 215.6 702.441 215.6C702.119 215.6 701.853 215.67 701.642 215.811C701.437 215.951 701.275 216.145 701.158 216.391C701.047 216.631 700.968 216.909 700.921 217.226C700.874 217.542 700.851 217.876 700.851 218.228V218.562C700.851 218.913 700.897 219.232 700.991 219.52C701.091 219.807 701.231 220.053 701.413 220.258C701.601 220.457 701.823 220.612 702.081 220.724C702.345 220.835 702.644 220.891 702.978 220.891C703.382 220.891 703.78 220.814 704.173 220.662C704.565 220.51 704.902 220.258 705.184 219.906L706.528 221.506C706.335 221.781 706.06 222.048 705.702 222.306C705.351 222.563 704.929 222.774 704.437 222.938C703.944 223.097 703.394 223.176 702.784 223.176ZM713.217 218.983V210.203H716.293V218.983C716.293 219.839 716.097 220.58 715.704 221.207C715.317 221.834 714.79 222.32 714.122 222.666C713.46 223.006 712.716 223.176 711.89 223.176C711.034 223.176 710.272 223.032 709.604 222.745C708.942 222.458 708.421 222.016 708.04 221.418C707.665 220.82 707.478 220.059 707.478 219.133H710.571C710.571 219.566 710.621 219.906 710.721 220.152C710.82 220.393 710.967 220.562 711.16 220.662C711.359 220.756 711.603 220.803 711.89 220.803C712.171 220.803 712.408 220.732 712.602 220.592C712.801 220.445 712.953 220.237 713.059 219.968C713.164 219.692 713.217 219.364 713.217 218.983ZM724.845 219.599C724.845 219.399 724.815 219.221 724.757 219.062C724.698 218.898 724.59 218.746 724.432 218.605C724.273 218.465 724.045 218.324 723.746 218.184C723.453 218.037 723.066 217.885 722.586 217.727C722.023 217.539 721.481 217.328 720.96 217.094C720.438 216.854 719.973 216.575 719.562 216.259C719.152 215.937 718.827 215.562 718.587 215.134C718.347 214.7 718.227 214.196 718.227 213.622C718.227 213.071 718.35 212.576 718.596 212.137C718.842 211.691 719.185 211.313 719.624 211.003C720.069 210.687 720.591 210.446 721.188 210.282C721.786 210.112 722.439 210.027 723.148 210.027C724.086 210.027 724.912 210.191 725.627 210.52C726.348 210.842 726.91 211.302 727.314 211.899C727.725 212.491 727.93 213.191 727.93 214H724.862C724.862 213.678 724.795 213.394 724.66 213.147C724.531 212.901 724.335 212.708 724.071 212.567C723.808 212.427 723.477 212.356 723.078 212.356C722.691 212.356 722.366 212.415 722.103 212.532C721.839 212.649 721.64 212.808 721.505 213.007C721.37 213.2 721.303 213.414 721.303 213.648C721.303 213.842 721.355 214.018 721.461 214.176C721.572 214.328 721.728 214.472 721.927 214.606C722.132 214.741 722.378 214.87 722.665 214.993C722.958 215.116 723.286 215.236 723.649 215.354C724.329 215.57 724.933 215.813 725.46 216.083C725.993 216.347 726.441 216.648 726.805 216.988C727.174 217.322 727.452 217.703 727.64 218.131C727.833 218.559 727.93 219.042 727.93 219.581C727.93 220.155 727.818 220.665 727.596 221.11C727.373 221.556 727.054 221.934 726.638 222.244C726.222 222.549 725.724 222.78 725.144 222.938C724.563 223.097 723.916 223.176 723.201 223.176C722.545 223.176 721.897 223.094 721.259 222.93C720.626 222.76 720.052 222.502 719.536 222.156C719.021 221.805 718.607 221.356 718.297 220.812C717.992 220.261 717.84 219.607 717.84 218.852H720.934C720.934 219.227 720.983 219.543 721.083 219.801C721.183 220.059 721.329 220.267 721.522 220.425C721.716 220.577 721.953 220.688 722.234 220.759C722.516 220.823 722.838 220.855 723.201 220.855C723.594 220.855 723.91 220.8 724.15 220.688C724.391 220.571 724.566 220.419 724.678 220.231C724.789 220.038 724.845 219.827 724.845 219.599Z" fill="white"/>
<rect x="642" y="196" width="109" height="41" rx="3" stroke="#424242" stroke-width="4"/>
<g clip-path="url(#clip0_3_61)">
<path d="M1066 0H1348C1356.28 0 1363 6.71573 1363 15V282C1363 290.284 1356.28 297 1348 297H1066V0Z" fill="white"/>
<rect x="1059.25" y="-6.75" width="310.5" height="310.5" rx="30" fill="#BB3233"/>
<path d="M1156.14 162.992L1152.3 182H1132.14L1143.75 123.824C1144.27 121.136 1145.55 118.96 1147.59 117.296C1149.71 115.632 1152.11 114.8 1154.79 114.8H1201.35C1203.15 114.8 1204.78 115.184 1206.25 115.952C1207.79 116.656 1209.03 117.648 1209.99 118.928C1211.02 120.144 1211.75 121.552 1212.2 123.152C1212.65 124.752 1212.68 126.416 1212.3 128.144L1201.55 182H1181.39L1185.23 162.992H1156.14ZM1188.39 147.248L1191.18 133.136C1191.31 132.432 1191.15 131.824 1190.7 131.312C1190.25 130.736 1189.67 130.448 1188.97 130.448H1150.76L1161.9 133.808L1159.21 147.248H1188.39ZM1232.84 130.448L1244.07 133.808L1238.12 163.664C1237.99 164.368 1238.15 165.008 1238.6 165.584C1239.04 166.096 1239.62 166.352 1240.32 166.352H1266.63C1267.78 166.352 1268.52 165.744 1268.84 164.528L1269.8 159.632H1289.96L1287.27 172.976C1286.76 175.664 1285.48 177.84 1283.43 179.504C1281.38 181.168 1279.01 182 1276.32 182H1226.31C1224.77 182 1223.33 181.68 1221.99 181.04C1220.64 180.4 1219.52 179.536 1218.63 178.448C1217.73 177.296 1217.09 176.016 1216.71 174.608C1216.32 173.2 1216.29 171.728 1216.61 170.192L1225.92 123.824C1226.44 121.136 1227.72 118.96 1229.76 117.296C1231.81 115.632 1234.18 114.8 1236.87 114.8H1285.73C1287.46 114.8 1289.06 115.184 1290.53 115.952C1292.07 116.656 1293.35 117.648 1294.37 118.928C1295.4 120.144 1296.13 121.552 1296.58 123.152C1297.03 124.752 1297.06 126.416 1296.68 128.144L1294.85 137.168H1274.69L1275.56 133.136C1275.68 132.432 1275.52 131.824 1275.08 131.312C1274.63 130.736 1274.05 130.448 1273.35 130.448H1232.84Z" fill="white"/>
</g>
<defs>
<clipPath id="clip0_3_61">
<path d="M1066 0H1348C1356.28 0 1363 6.71573 1363 15V282C1363 290.284 1356.28 297 1348 297H1066V0Z" fill="white"/>
</clipPath>
</defs>
</svg>
