<svg width="1363" height="163" viewBox="0 0 1363 163" fill="none" xmlns="http://www.w3.org/2000/svg">
<path d="M0 15C0 6.71573 6.71573 0 15 0H37V163H15C6.71573 163 0 156.284 0 148V15Z" fill="#BB3233"/>
<rect width="1097" height="163" transform="translate(37)" fill="#F0F0F0"/>
<path d="M101.906 53.9219L94.3945 51.2383V48.0859L104.602 52.375V54.6367L101.906 53.9219ZM94.3945 56.1719L101.918 53.4297L104.602 52.7852V55.0352L94.3945 59.3242V56.1719ZM119.836 46.8555L115.195 61H111.457L117.797 43.9375H120.176L119.836 46.8555ZM123.691 61L119.039 46.8555L118.664 43.9375H121.066L127.441 61H123.691ZM123.48 54.6484V57.4023H114.469V54.6484H123.48ZM136.172 57.9648V48.3203H139.547V61H136.371L136.172 57.9648ZM136.547 55.3633L137.543 55.3398C137.543 56.1836 137.445 56.9688 137.25 57.6953C137.055 58.4141 136.762 59.0391 136.371 59.5703C135.98 60.0938 135.488 60.5039 134.895 60.8008C134.301 61.0898 133.602 61.2344 132.797 61.2344C132.18 61.2344 131.609 61.1484 131.086 60.9766C130.57 60.7969 130.125 60.5195 129.75 60.1445C129.383 59.7617 129.094 59.2734 128.883 58.6797C128.68 58.0781 128.578 57.3555 128.578 56.5117V48.3203H131.953V56.5352C131.953 56.9102 131.996 57.2266 132.082 57.4844C132.176 57.7422 132.305 57.9531 132.469 58.1172C132.633 58.2812 132.824 58.3984 133.043 58.4688C133.27 58.5391 133.52 58.5742 133.793 58.5742C134.488 58.5742 135.035 58.4336 135.434 58.1523C135.84 57.8711 136.125 57.4883 136.289 57.0039C136.461 56.5117 136.547 55.9648 136.547 55.3633ZM148.336 48.3203V50.7109H140.953V48.3203H148.336ZM142.781 45.1914H146.156V57.1797C146.156 57.5469 146.203 57.8281 146.297 58.0234C146.398 58.2188 146.547 58.3555 146.742 58.4336C146.938 58.5039 147.184 58.5391 147.48 58.5391C147.691 58.5391 147.879 58.5312 148.043 58.5156C148.215 58.4922 148.359 58.4688 148.477 58.4453L148.488 60.9297C148.199 61.0234 147.887 61.0977 147.551 61.1523C147.215 61.207 146.844 61.2344 146.438 61.2344C145.695 61.2344 145.047 61.1133 144.492 60.8711C143.945 60.6211 143.523 60.2227 143.227 59.6758C142.93 59.1289 142.781 58.4102 142.781 57.5195V45.1914ZM149.414 54.7891V54.543C149.414 53.6133 149.547 52.7578 149.812 51.9766C150.078 51.1875 150.465 50.5039 150.973 49.9258C151.48 49.3477 152.105 48.8984 152.848 48.5781C153.59 48.25 154.441 48.0859 155.402 48.0859C156.363 48.0859 157.219 48.25 157.969 48.5781C158.719 48.8984 159.348 49.3477 159.855 49.9258C160.371 50.5039 160.762 51.1875 161.027 51.9766C161.293 52.7578 161.426 53.6133 161.426 54.543V54.7891C161.426 55.7109 161.293 56.5664 161.027 57.3555C160.762 58.1367 160.371 58.8203 159.855 59.4062C159.348 59.9844 158.723 60.4336 157.98 60.7539C157.238 61.0742 156.387 61.2344 155.426 61.2344C154.465 61.2344 153.609 61.0742 152.859 60.7539C152.117 60.4336 151.488 59.9844 150.973 59.4062C150.465 58.8203 150.078 58.1367 149.812 57.3555C149.547 56.5664 149.414 55.7109 149.414 54.7891ZM152.789 54.543V54.7891C152.789 55.3203 152.836 55.8164 152.93 56.2773C153.023 56.7383 153.172 57.1445 153.375 57.4961C153.586 57.8398 153.859 58.1094 154.195 58.3047C154.531 58.5 154.941 58.5977 155.426 58.5977C155.895 58.5977 156.297 58.5 156.633 58.3047C156.969 58.1094 157.238 57.8398 157.441 57.4961C157.645 57.1445 157.793 56.7383 157.887 56.2773C157.988 55.8164 158.039 55.3203 158.039 54.7891V54.543C158.039 54.0273 157.988 53.543 157.887 53.0898C157.793 52.6289 157.641 52.2227 157.43 51.8711C157.227 51.5117 156.957 51.2305 156.621 51.0273C156.285 50.8242 155.879 50.7227 155.402 50.7227C154.926 50.7227 154.52 50.8242 154.184 51.0273C153.855 51.2305 153.586 51.5117 153.375 51.8711C153.172 52.2227 153.023 52.6289 152.93 53.0898C152.836 53.543 152.789 54.0273 152.789 54.543ZM173.602 55.3398H177.105C177.035 56.4883 176.719 57.5078 176.156 58.3984C175.602 59.2891 174.824 59.9844 173.824 60.4844C172.832 60.9844 171.637 61.2344 170.238 61.2344C169.145 61.2344 168.164 61.0469 167.297 60.6719C166.43 60.2891 165.688 59.7422 165.07 59.0312C164.461 58.3203 163.996 57.4609 163.676 56.4531C163.355 55.4453 163.195 54.3164 163.195 53.0664V51.8828C163.195 50.6328 163.359 49.5039 163.688 48.4961C164.023 47.4805 164.5 46.6172 165.117 45.9062C165.742 45.1953 166.488 44.6484 167.355 44.2656C168.223 43.8828 169.191 43.6914 170.262 43.6914C171.684 43.6914 172.883 43.9492 173.859 44.4648C174.844 44.9805 175.605 45.6914 176.145 46.5977C176.691 47.5039 177.02 48.5352 177.129 49.6914H173.613C173.574 49.0039 173.438 48.4219 173.203 47.9453C172.969 47.4609 172.613 47.0977 172.137 46.8555C171.668 46.6055 171.043 46.4805 170.262 46.4805C169.676 46.4805 169.164 46.5898 168.727 46.8086C168.289 47.0273 167.922 47.3594 167.625 47.8047C167.328 48.25 167.105 48.8125 166.957 49.4922C166.816 50.1641 166.746 50.9531 166.746 51.8594V53.0664C166.746 53.9492 166.812 54.7266 166.945 55.3984C167.078 56.0625 167.281 56.625 167.555 57.0859C167.836 57.5391 168.195 57.8828 168.633 58.1172C169.078 58.3438 169.613 58.457 170.238 58.457C170.973 58.457 171.578 58.3398 172.055 58.1055C172.531 57.8711 172.895 57.5234 173.145 57.0625C173.402 56.6016 173.555 56.0273 173.602 55.3398ZM186.047 58.1406V52.4922C186.047 52.0859 185.98 51.7383 185.848 51.4492C185.715 51.1523 185.508 50.9219 185.227 50.7578C184.953 50.5938 184.598 50.5117 184.16 50.5117C183.785 50.5117 183.461 50.5781 183.188 50.7109C182.914 50.8359 182.703 51.0195 182.555 51.2617C182.406 51.4961 182.332 51.7734 182.332 52.0938H178.957C178.957 51.5547 179.082 51.043 179.332 50.5586C179.582 50.0742 179.945 49.6484 180.422 49.2812C180.898 48.9062 181.465 48.6133 182.121 48.4023C182.785 48.1914 183.527 48.0859 184.348 48.0859C185.332 48.0859 186.207 48.25 186.973 48.5781C187.738 48.9062 188.34 49.3984 188.777 50.0547C189.223 50.7109 189.445 51.5312 189.445 52.5156V57.9414C189.445 58.6367 189.488 59.207 189.574 59.6523C189.66 60.0898 189.785 60.4727 189.949 60.8008V61H186.539C186.375 60.6562 186.25 60.2266 186.164 59.7109C186.086 59.1875 186.047 58.6641 186.047 58.1406ZM186.492 53.2773L186.516 55.1875H184.629C184.184 55.1875 183.797 55.2383 183.469 55.3398C183.141 55.4414 182.871 55.5859 182.66 55.7734C182.449 55.9531 182.293 56.1641 182.191 56.4062C182.098 56.6484 182.051 56.9141 182.051 57.2031C182.051 57.4922 182.117 57.7539 182.25 57.9883C182.383 58.2148 182.574 58.3945 182.824 58.5273C183.074 58.6523 183.367 58.7148 183.703 58.7148C184.211 58.7148 184.652 58.6133 185.027 58.4102C185.402 58.207 185.691 57.957 185.895 57.6602C186.105 57.3633 186.215 57.082 186.223 56.8164L187.113 58.2461C186.988 58.5664 186.816 58.8984 186.598 59.2422C186.387 59.5859 186.117 59.9102 185.789 60.2148C185.461 60.5117 185.066 60.7578 184.605 60.9531C184.145 61.1406 183.598 61.2344 182.965 61.2344C182.16 61.2344 181.43 61.0742 180.773 60.7539C180.125 60.4258 179.609 59.9766 179.227 59.4062C178.852 58.8281 178.664 58.1719 178.664 57.4375C178.664 56.7734 178.789 56.1836 179.039 55.668C179.289 55.1523 179.656 54.7188 180.141 54.3672C180.633 54.0078 181.246 53.7383 181.98 53.5586C182.715 53.3711 183.566 53.2773 184.535 53.2773H186.492ZM195.422 51.0859V61H192.047V48.3203H195.223L195.422 51.0859ZM199.242 48.2383L199.184 51.3672C199.02 51.3438 198.82 51.3242 198.586 51.3086C198.359 51.2852 198.152 51.2734 197.965 51.2734C197.488 51.2734 197.074 51.3359 196.723 51.4609C196.379 51.5781 196.09 51.7539 195.855 51.9883C195.629 52.2227 195.457 52.5078 195.34 52.8438C195.23 53.1797 195.168 53.5625 195.152 53.9922L194.473 53.7812C194.473 52.9609 194.555 52.207 194.719 51.5195C194.883 50.8242 195.121 50.2188 195.434 49.7031C195.754 49.1875 196.145 48.7891 196.605 48.5078C197.066 48.2266 197.594 48.0859 198.188 48.0859C198.375 48.0859 198.566 48.1016 198.762 48.1328C198.957 48.1562 199.117 48.1914 199.242 48.2383ZM206.438 61.2344C205.453 61.2344 204.57 61.0781 203.789 60.7656C203.008 60.4453 202.344 60.0039 201.797 59.4414C201.258 58.8789 200.844 58.2266 200.555 57.4844C200.266 56.7344 200.121 55.9375 200.121 55.0938V54.625C200.121 53.6641 200.258 52.7852 200.531 51.9883C200.805 51.1914 201.195 50.5 201.703 49.9141C202.219 49.3281 202.844 48.8789 203.578 48.5664C204.312 48.2461 205.141 48.0859 206.062 48.0859C206.961 48.0859 207.758 48.2344 208.453 48.5312C209.148 48.8281 209.73 49.25 210.199 49.7969C210.676 50.3438 211.035 51 211.277 51.7656C211.52 52.5234 211.641 53.3672 211.641 54.2969V55.7031H201.562V53.4531H208.324V53.1953C208.324 52.7266 208.238 52.3086 208.066 51.9414C207.902 51.5664 207.652 51.2695 207.316 51.0508C206.98 50.832 206.551 50.7227 206.027 50.7227C205.582 50.7227 205.199 50.8203 204.879 51.0156C204.559 51.2109 204.297 51.4844 204.094 51.8359C203.898 52.1875 203.75 52.6016 203.648 53.0781C203.555 53.5469 203.508 54.0625 203.508 54.625V55.0938C203.508 55.6016 203.578 56.0703 203.719 56.5C203.867 56.9297 204.074 57.3008 204.34 57.6133C204.613 57.9258 204.941 58.168 205.324 58.3398C205.715 58.5117 206.156 58.5977 206.648 58.5977C207.258 58.5977 207.824 58.4805 208.348 58.2461C208.879 58.0039 209.336 57.6406 209.719 57.1562L211.359 58.9375C211.094 59.3203 210.73 59.6875 210.27 60.0391C209.816 60.3906 209.27 60.6797 208.629 60.9062C207.988 61.125 207.258 61.2344 206.438 61.2344Z" fill="#888888"/>
<path d="M112.125 84.875V119H103.898V84.875H112.125ZM122.391 84.875V91.2266H93.8672V84.875H122.391ZM135.68 119.469C133.617 119.469 131.773 119.148 130.148 118.508C128.523 117.852 127.148 116.953 126.023 115.812C124.914 114.672 124.062 113.359 123.469 111.875C122.891 110.391 122.602 108.82 122.602 107.164V106.273C122.602 104.414 122.859 102.695 123.375 101.117C123.891 99.5234 124.656 98.1328 125.672 96.9453C126.688 95.7578 127.961 94.8359 129.492 94.1797C131.023 93.5078 132.805 93.1719 134.836 93.1719C136.633 93.1719 138.242 93.4609 139.664 94.0391C141.086 94.6172 142.289 95.4453 143.273 96.5234C144.273 97.6016 145.031 98.9062 145.547 100.438C146.078 101.969 146.344 103.688 146.344 105.594V108.805H125.625V103.859H138.633V103.25C138.648 102.406 138.5 101.688 138.188 101.094C137.891 100.5 137.453 100.047 136.875 99.7344C136.297 99.4219 135.594 99.2656 134.766 99.2656C133.906 99.2656 133.195 99.4531 132.633 99.8281C132.086 100.203 131.656 100.719 131.344 101.375C131.047 102.016 130.836 102.758 130.711 103.602C130.586 104.445 130.523 105.336 130.523 106.273V107.164C130.523 108.102 130.648 108.953 130.898 109.719C131.164 110.484 131.539 111.141 132.023 111.688C132.523 112.219 133.117 112.633 133.805 112.93C134.508 113.227 135.305 113.375 136.195 113.375C137.273 113.375 138.336 113.172 139.383 112.766C140.43 112.359 141.328 111.688 142.078 110.75L145.664 115.016C145.148 115.75 144.414 116.461 143.461 117.148C142.523 117.836 141.398 118.398 140.086 118.836C138.773 119.258 137.305 119.469 135.68 119.469ZM160.266 113.375C161 113.375 161.625 113.242 162.141 112.977C162.672 112.695 163.07 112.305 163.336 111.805C163.617 111.289 163.75 110.672 163.734 109.953H171.164C171.18 111.859 170.711 113.531 169.758 114.969C168.82 116.391 167.539 117.5 165.914 118.297C164.305 119.078 162.484 119.469 160.453 119.469C158.469 119.469 156.734 119.148 155.25 118.508C153.766 117.852 152.523 116.945 151.523 115.789C150.539 114.617 149.797 113.25 149.297 111.688C148.812 110.125 148.57 108.43 148.57 106.602V106.062C148.57 104.234 148.812 102.539 149.297 100.977C149.797 99.3984 150.539 98.0312 151.523 96.875C152.523 95.7031 153.758 94.7969 155.227 94.1562C156.711 93.5 158.438 93.1719 160.406 93.1719C162.516 93.1719 164.375 93.5703 165.984 94.3672C167.609 95.1641 168.883 96.3203 169.805 97.8359C170.727 99.3516 171.18 101.188 171.164 103.344H163.734C163.75 102.578 163.633 101.891 163.383 101.281C163.133 100.672 162.742 100.188 162.211 99.8281C161.695 99.4531 161.031 99.2656 160.219 99.2656C159.406 99.2656 158.75 99.4453 158.25 99.8047C157.75 100.164 157.367 100.664 157.102 101.305C156.852 101.93 156.68 102.648 156.586 103.461C156.508 104.273 156.469 105.141 156.469 106.062V106.602C156.469 107.539 156.508 108.422 156.586 109.25C156.68 110.062 156.859 110.781 157.125 111.406C157.391 112.016 157.773 112.5 158.273 112.859C158.773 113.203 159.438 113.375 160.266 113.375ZM182.273 83V119H174.375V83H182.273ZM181.336 105.453L179.484 105.5C179.484 103.719 179.703 102.078 180.141 100.578C180.578 99.0781 181.203 97.7734 182.016 96.6641C182.828 95.5547 183.805 94.6953 184.945 94.0859C186.086 93.4766 187.352 93.1719 188.742 93.1719C189.992 93.1719 191.133 93.3516 192.164 93.7109C193.211 94.0703 194.109 94.6484 194.859 95.4453C195.625 96.2422 196.211 97.2812 196.617 98.5625C197.039 99.8438 197.25 101.406 197.25 103.25V119H189.305V103.203C189.305 102.172 189.156 101.375 188.859 100.812C188.578 100.234 188.172 99.8359 187.641 99.6172C187.109 99.3828 186.461 99.2656 185.695 99.2656C184.773 99.2656 184.023 99.4219 183.445 99.7344C182.867 100.047 182.422 100.484 182.109 101.047C181.812 101.594 181.609 102.242 181.5 102.992C181.391 103.742 181.336 104.562 181.336 105.453ZM231.539 109.93C231.539 109.398 231.461 108.922 231.305 108.5C231.148 108.062 230.859 107.656 230.438 107.281C230.016 106.906 229.406 106.531 228.609 106.156C227.828 105.766 226.797 105.359 225.516 104.938C224.016 104.438 222.57 103.875 221.18 103.25C219.789 102.609 218.547 101.867 217.453 101.023C216.359 100.164 215.492 99.1641 214.852 98.0234C214.211 96.8672 213.891 95.5234 213.891 93.9922C213.891 92.5234 214.219 91.2031 214.875 90.0312C215.531 88.8438 216.445 87.8359 217.617 87.0078C218.805 86.1641 220.195 85.5234 221.789 85.0859C223.383 84.6328 225.125 84.4062 227.016 84.4062C229.516 84.4062 231.719 84.8438 233.625 85.7188C235.547 86.5781 237.047 87.8047 238.125 89.3984C239.219 90.9766 239.766 92.8438 239.766 95H231.586C231.586 94.1406 231.406 93.3828 231.047 92.7266C230.703 92.0703 230.18 91.5547 229.477 91.1797C228.773 90.8047 227.891 90.6172 226.828 90.6172C225.797 90.6172 224.93 90.7734 224.227 91.0859C223.523 91.3984 222.992 91.8203 222.633 92.3516C222.273 92.8672 222.094 93.4375 222.094 94.0625C222.094 94.5781 222.234 95.0469 222.516 95.4688C222.812 95.875 223.227 96.2578 223.758 96.6172C224.305 96.9766 224.961 97.3203 225.727 97.6484C226.508 97.9766 227.383 98.2969 228.352 98.6094C230.164 99.1875 231.773 99.8359 233.18 100.555C234.602 101.258 235.797 102.062 236.766 102.969C237.75 103.859 238.492 104.875 238.992 106.016C239.508 107.156 239.766 108.445 239.766 109.883C239.766 111.414 239.469 112.773 238.875 113.961C238.281 115.148 237.43 116.156 236.32 116.984C235.211 117.797 233.883 118.414 232.336 118.836C230.789 119.258 229.062 119.469 227.156 119.469C225.406 119.469 223.68 119.25 221.977 118.812C220.289 118.359 218.758 117.672 217.383 116.75C216.008 115.812 214.906 114.617 214.078 113.164C213.266 111.695 212.859 109.953 212.859 107.938H221.109C221.109 108.938 221.242 109.781 221.508 110.469C221.773 111.156 222.164 111.711 222.68 112.133C223.195 112.539 223.828 112.836 224.578 113.023C225.328 113.195 226.188 113.281 227.156 113.281C228.203 113.281 229.047 113.133 229.688 112.836C230.328 112.523 230.797 112.117 231.094 111.617C231.391 111.102 231.539 110.539 231.539 109.93ZM256.992 93.6406V99.125H241.711V93.6406H256.992ZM244.922 87.3359H252.82V110.727C252.82 111.398 252.898 111.922 253.055 112.297C253.211 112.656 253.477 112.914 253.852 113.07C254.242 113.211 254.758 113.281 255.398 113.281C255.852 113.281 256.227 113.273 256.523 113.258C256.82 113.227 257.102 113.188 257.367 113.141V118.789C256.695 119.008 255.992 119.172 255.258 119.281C254.523 119.406 253.742 119.469 252.914 119.469C251.227 119.469 249.781 119.203 248.578 118.672C247.391 118.141 246.484 117.305 245.859 116.164C245.234 115.023 244.922 113.539 244.922 111.711V87.3359ZM273.305 112.625V102.172C273.305 101.453 273.203 100.836 273 100.32C272.797 99.8047 272.477 99.4062 272.039 99.125C271.602 98.8281 271.016 98.6797 270.281 98.6797C269.688 98.6797 269.18 98.7812 268.758 98.9844C268.336 99.1875 268.016 99.4922 267.797 99.8984C267.578 100.305 267.469 100.82 267.469 101.445H259.57C259.57 100.273 259.828 99.1875 260.344 98.1875C260.875 97.1719 261.625 96.2891 262.594 95.5391C263.578 94.7891 264.75 94.2109 266.109 93.8047C267.484 93.3828 269.016 93.1719 270.703 93.1719C272.719 93.1719 274.516 93.5078 276.094 94.1797C277.688 94.8516 278.945 95.8594 279.867 97.2031C280.789 98.5312 281.25 100.203 281.25 102.219V112.602C281.25 114.258 281.344 115.516 281.531 116.375C281.719 117.219 281.984 117.961 282.328 118.602V119H274.406C274.031 118.219 273.75 117.266 273.562 116.141C273.391 115 273.305 113.828 273.305 112.625ZM274.266 103.508L274.312 107.727H270.82C270.086 107.727 269.461 107.828 268.945 108.031C268.445 108.234 268.039 108.516 267.727 108.875C267.43 109.219 267.211 109.609 267.07 110.047C266.945 110.484 266.883 110.945 266.883 111.43C266.883 111.898 266.992 112.32 267.211 112.695C267.445 113.055 267.758 113.336 268.148 113.539C268.539 113.742 268.977 113.844 269.461 113.844C270.336 113.844 271.078 113.68 271.688 113.352C272.312 113.008 272.789 112.594 273.117 112.109C273.445 111.625 273.609 111.172 273.609 110.75L275.344 113.984C275.031 114.609 274.672 115.242 274.266 115.883C273.875 116.523 273.383 117.117 272.789 117.664C272.211 118.195 271.5 118.633 270.656 118.977C269.812 119.305 268.789 119.469 267.586 119.469C266.023 119.469 264.586 119.148 263.273 118.508C261.977 117.867 260.938 116.977 260.156 115.836C259.375 114.68 258.984 113.352 258.984 111.852C258.984 110.539 259.219 109.367 259.688 108.336C260.172 107.305 260.898 106.43 261.867 105.711C262.836 104.992 264.07 104.445 265.57 104.07C267.07 103.695 268.836 103.508 270.867 103.508H274.266ZM296.344 113.375C297.078 113.375 297.703 113.242 298.219 112.977C298.75 112.695 299.148 112.305 299.414 111.805C299.695 111.289 299.828 110.672 299.812 109.953H307.242C307.258 111.859 306.789 113.531 305.836 114.969C304.898 116.391 303.617 117.5 301.992 118.297C300.383 119.078 298.562 119.469 296.531 119.469C294.547 119.469 292.812 119.148 291.328 118.508C289.844 117.852 288.602 116.945 287.602 115.789C286.617 114.617 285.875 113.25 285.375 111.688C284.891 110.125 284.648 108.43 284.648 106.602V106.062C284.648 104.234 284.891 102.539 285.375 100.977C285.875 99.3984 286.617 98.0312 287.602 96.875C288.602 95.7031 289.836 94.7969 291.305 94.1562C292.789 93.5 294.516 93.1719 296.484 93.1719C298.594 93.1719 300.453 93.5703 302.062 94.3672C303.688 95.1641 304.961 96.3203 305.883 97.8359C306.805 99.3516 307.258 101.188 307.242 103.344H299.812C299.828 102.578 299.711 101.891 299.461 101.281C299.211 100.672 298.82 100.188 298.289 99.8281C297.773 99.4531 297.109 99.2656 296.297 99.2656C295.484 99.2656 294.828 99.4453 294.328 99.8047C293.828 100.164 293.445 100.664 293.18 101.305C292.93 101.93 292.758 102.648 292.664 103.461C292.586 104.273 292.547 105.141 292.547 106.062V106.602C292.547 107.539 292.586 108.422 292.664 109.25C292.758 110.062 292.938 110.781 293.203 111.406C293.469 112.016 293.852 112.5 294.352 112.859C294.852 113.203 295.516 113.375 296.344 113.375ZM318.586 82.9766V119H310.688V82.9766H318.586ZM334.805 93.6406L323.789 106.555L318.023 112.32L314.578 107.305L319.383 101.047L325.336 93.6406H334.805ZM326.344 119L319.57 107.445L325.406 103.297L335.391 119H326.344Z" fill="black"/>
<path d="M1134 0H1348C1356.28 0 1363 6.71573 1363 15V148C1363 156.284 1356.28 163 1348 163H1134V0Z" fill="#BB3233"/>
<path fill-rule="evenodd" clip-rule="evenodd" d="M1218.75 53C1218.62 53 1218.49 53.0527 1218.4 53.1464C1218.3 53.2402 1218.25 53.3674 1218.25 53.5V109.5C1218.25 109.633 1218.3 109.76 1218.4 109.854C1218.49 109.947 1218.62 110 1218.75 110H1278.25C1278.38 110 1278.51 109.947 1278.6 109.854C1278.7 109.76 1278.75 109.633 1278.75 109.5V64C1278.75 63.8674 1278.7 63.7402 1278.6 63.6464C1278.51 63.5527 1278.38 63.5 1278.25 63.5H1248.5C1247.61 63.5 1246.77 63.1045 1246.2 62.4206L1238.34 53H1218.75ZM1214.15 48.9038C1215.37 47.6848 1217.03 47 1218.75 47H1239.75C1240.64 47 1241.48 47.3955 1242.05 48.0794L1249.91 57.5H1278.25C1279.97 57.5 1281.63 58.1848 1282.85 59.4038C1284.07 60.6228 1284.75 62.2761 1284.75 64V109.5C1284.75 111.224 1284.07 112.877 1282.85 114.096C1281.63 115.315 1279.97 116 1278.25 116H1218.75C1217.03 116 1215.37 115.315 1214.15 114.096C1212.93 112.877 1212.25 111.224 1212.25 109.5V53.5C1212.25 51.7761 1212.93 50.1228 1214.15 48.9038Z" fill="white"/>
<path fill-rule="evenodd" clip-rule="evenodd" d="M1243.97 75.5251C1245.34 76.892 1245.34 79.108 1243.97 80.4749L1237.7 86.75L1243.97 93.0251C1245.34 94.392 1245.34 96.608 1243.97 97.9749C1242.61 99.3417 1240.39 99.3417 1239.03 97.9749L1230.28 89.2249C1228.91 87.858 1228.91 85.642 1230.28 84.2751L1239.03 75.5251C1240.39 74.1583 1242.61 74.1583 1243.97 75.5251Z" fill="white"/>
<path fill-rule="evenodd" clip-rule="evenodd" d="M1252.28 97.9749C1250.91 96.608 1250.91 94.392 1252.28 93.0251L1258.55 86.75L1252.28 80.4749C1250.91 79.108 1250.91 76.892 1252.28 75.5251C1253.64 74.1583 1255.86 74.1583 1257.22 75.5251L1265.97 84.2751C1267.34 85.642 1267.34 87.858 1265.97 89.2249L1257.22 97.9749C1255.86 99.3417 1253.64 99.3417 1252.28 97.9749Z" fill="white"/>
</svg>
